<svg width="15" height="20" viewBox="0 0 15 20" fill="none" xmlns="http://www.w3.org/2000/svg">
<path d="M7.07818 2.89838C6.39724 2.89838 5.73158 3.10474 5.16539 3.49136C4.59921 3.87799 4.15792 4.42752 3.89733 5.07045C3.63675 5.71339 3.56856 6.42086 3.70141 7.10339C3.83426 7.78593 4.16216 8.41288 4.64367 8.90496C5.12517 9.39704 5.73864 9.73215 6.4065 9.86792C7.07436 10.0037 7.76662 9.934 8.39573 9.66769C9.02484 9.40138 9.56256 8.95039 9.94087 8.37177C10.3192 7.79314 10.5211 7.11286 10.5211 6.41695C10.5211 5.48377 10.1584 4.5888 9.5127 3.92894C8.86702 3.26908 7.9913 2.89838 7.07818 2.89838ZM7.07818 8.7074C6.63491 8.7074 6.2016 8.57307 5.83303 8.32139C5.46447 8.06972 5.17721 7.71199 5.00758 7.29347C4.83794 6.87494 4.79356 6.41441 4.88004 5.97011C4.96652 5.5258 5.17997 5.11768 5.49341 4.79736C5.80685 4.47703 6.20619 4.25889 6.64094 4.17051C7.0757 4.08213 7.52633 4.12749 7.93585 4.30085C8.34538 4.47421 8.69541 4.76778 8.94168 5.14445C9.18794 5.52111 9.31939 5.96394 9.31939 6.41695C9.3178 7.02335 9.08097 7.60436 8.66083 8.03258C8.2407 8.46079 7.67155 8.70127 7.07818 8.70126V8.7074Z" fill="black"/>
<path d="M7.07813 6.07873e-10C5.20657 0.00159753 3.41167 0.760016 2.08547 2.10961C0.759264 3.4592 0.00952382 5.29029 0 7.20295C0 10.0706 1.57425 12.4716 2.7279 14.2217L2.9382 14.541C4.08601 16.2411 5.31735 17.8807 6.62748 19.4535L7.08414 20L7.54079 19.4535C8.85075 17.8806 10.0821 16.241 11.2301 14.541L11.4404 14.2155C12.588 12.4655 14.1623 10.0706 14.1623 7.20295C14.1527 5.28923 13.4022 3.45721 12.0747 2.10744C10.7472 0.757677 8.95073 -2.47811e-05 7.07813 6.07873e-10ZM10.4369 13.5094L10.2206 13.8348C9.18715 15.4191 7.81718 17.1937 7.07813 18.0718C6.36911 17.1937 4.96911 15.4191 3.93563 13.8348L3.72533 13.5094C2.66181 11.8882 1.20172 9.67148 1.20172 7.17838C1.20172 6.38973 1.35372 5.60879 1.64903 4.88017C1.94435 4.15155 2.3772 3.4895 2.92288 2.93184C3.46855 2.37417 4.11636 1.93181 4.82932 1.63C5.54228 1.3282 6.30643 1.17286 7.07813 1.17286C7.84983 1.17286 8.61397 1.3282 9.32693 1.63C10.0399 1.93181 10.6877 2.37417 11.2334 2.93184C11.7791 3.4895 12.2119 4.15155 12.5072 4.88017C12.8025 5.60879 12.9545 6.38973 12.9545 7.17838C12.9545 9.69604 11.5005 11.9128 10.4369 13.5094Z" fill="#2e2e2e"/>
</svg>
