<svg width="187" height="150" viewBox="0 0 313 250" fill="none" xmlns="http://www.w3.org/2000/svg">
<path d="M286.155 214.188C315.636 182.188 312.668 141.094 312.574 140.625V15.625C312.574 11.481 310.928 7.50672 307.998 4.57646C305.068 1.6462 301.095 0 296.951 0H203.212C185.979 0 171.965 14.0156 171.965 31.25V140.625C171.965 144.769 173.611 148.743 176.541 151.674C179.471 154.604 183.445 156.25 187.588 156.25H235.677C235.347 163.975 233.039 171.485 228.974 178.062C221.038 190.578 206.086 199.125 184.511 203.438L171.965 205.938V250H187.588C231.068 250 264.236 237.953 286.155 214.188ZM114.19 214.188C143.687 182.188 140.703 141.094 140.609 140.625V15.625C140.609 11.481 138.963 7.50672 136.033 4.57646C133.103 1.6462 129.13 0 124.986 0H31.2465C14.0141 0 0 14.0156 0 31.25V140.625C0 144.769 1.64602 148.743 4.57594 151.674C7.50587 154.604 11.4797 156.25 15.6232 156.25H63.7116C63.3815 163.975 61.0737 171.485 57.0092 178.062C49.0726 190.578 34.1212 199.125 12.5455 203.438L0 205.938V250H15.6232C59.1028 250 92.2709 237.953 114.19 214.188V214.188Z" fill="#E4E4E4"/>
</svg>
