<svg width="116" height="21" viewBox="0 0 116 21" fill="none" xmlns="http://www.w3.org/2000/svg">
<path d="M99.025 18.777C98.9908 18.9236 98.9901 19.0762 99.0232 19.2231C99.0563 19.3701 99.1222 19.5076 99.216 19.6255C99.3098 19.7433 99.4291 19.8384 99.5648 19.9036C99.7006 19.9688 99.8494 20.0024 100 20.002C100.198 20.002 100.391 19.9436 100.555 19.834L106 16.204L111.445 19.834C111.615 19.9471 111.816 20.0053 112.021 20.0008C112.225 19.9963 112.423 19.9293 112.588 19.8089C112.754 19.6884 112.878 19.5203 112.945 19.327C113.012 19.1338 113.018 18.9247 112.962 18.728L111.133 12.328L115.669 8.24597C115.814 8.11516 115.918 7.94463 115.967 7.75548C116.017 7.56633 116.01 7.36685 115.947 7.18171C115.884 6.99657 115.768 6.83389 115.614 6.71379C115.46 6.59369 115.274 6.52144 115.079 6.50597L109.378 6.05197L106.911 0.590968C106.832 0.41508 106.705 0.265689 106.543 0.160825C106.381 0.0559612 106.193 0.000105879 106 1.50379e-07C105.808 -0.000105578 105.619 0.0555428 105.457 0.160229C105.296 0.264916 105.168 0.414166 105.089 0.589968L102.622 6.05197L96.921 6.50497C96.7295 6.52014 96.5464 6.59018 96.3936 6.7067C96.2408 6.82322 96.1248 6.98129 96.0595 7.162C95.9942 7.34271 95.9824 7.5384 96.0254 7.72567C96.0684 7.91294 96.1644 8.08385 96.302 8.21797L100.516 12.325L99.025 18.777ZM106 3.43097L108.042 7.95197L108.63 7.99897H108.631L112.603 8.31397L109.332 11.258L109.331 11.26L108.868 11.676L109.039 12.273V12.276L110.292 16.661L106 13.8V3.43097Z" fill="#FF9400"/>
<path d="M19.947 7.18097C19.8842 6.99583 19.7685 6.83316 19.6142 6.71303C19.46 6.5929 19.2739 6.52057 19.079 6.50497L13.378 6.05197L10.911 0.590968C10.8325 0.41508 10.7047 0.265689 10.5431 0.160825C10.3815 0.0559612 10.193 0.000105879 10.0004 1.50379e-07C9.80771 -0.000105578 9.61916 0.0555428 9.45745 0.160229C9.29574 0.264916 9.16779 0.414166 9.08903 0.589968L6.62203 6.05197L0.921026 6.50497C0.729482 6.52014 0.546364 6.59018 0.393581 6.7067C0.240798 6.82322 0.124819 6.98129 0.0595194 7.162C-0.00578038 7.34271 -0.0176359 7.5384 0.0253712 7.72567C0.0683783 7.91294 0.164427 8.08385 0.302026 8.21797L4.51503 12.325L3.02503 18.777C2.97978 18.9723 2.99428 19.1767 3.06665 19.3636C3.13901 19.5506 3.26589 19.7115 3.43083 19.8254C3.59577 19.9394 3.79115 20.0011 3.99161 20.0026C4.19208 20.0041 4.38837 19.9454 4.55503 19.834L10 16.204L15.445 19.834C15.6154 19.9471 15.8162 20.0053 16.0207 20.0008C16.2251 19.9963 16.4232 19.9293 16.5884 19.8089C16.7536 19.6884 16.878 19.5203 16.9448 19.327C17.0116 19.1338 17.0176 18.9247 16.962 18.728L15.133 12.328L19.669 8.24597C19.966 7.97797 20.075 7.55997 19.947 7.18097V7.18097Z" fill="#FF9400"/>
<path d="M43.947 7.18097C43.8842 6.99583 43.7685 6.83316 43.6142 6.71303C43.46 6.5929 43.2739 6.52057 43.079 6.50497L37.378 6.05197L34.911 0.590968C34.8325 0.41508 34.7047 0.265689 34.5431 0.160825C34.3815 0.0559612 34.193 0.000105879 34.0004 1.50379e-07C33.8077 -0.000105578 33.6192 0.0555428 33.4575 0.160229C33.2957 0.264916 33.1678 0.414166 33.089 0.589968L30.622 6.05197L24.921 6.50497C24.7295 6.52014 24.5464 6.59018 24.3936 6.7067C24.2408 6.82322 24.1248 6.98129 24.0595 7.162C23.9942 7.34271 23.9824 7.5384 24.0254 7.72567C24.0684 7.91294 24.1644 8.08385 24.302 8.21797L28.515 12.325L27.025 18.777C26.9798 18.9723 26.9943 19.1767 27.0666 19.3636C27.139 19.5506 27.2659 19.7115 27.4308 19.8254C27.5958 19.9394 27.7911 20.0011 27.9916 20.0026C28.1921 20.0041 28.3884 19.9454 28.555 19.834L34 16.204L39.445 19.834C39.6154 19.9471 39.8162 20.0053 40.0207 20.0008C40.2251 19.9963 40.4232 19.9293 40.5884 19.8089C40.7536 19.6884 40.878 19.5203 40.9448 19.327C41.0116 19.1338 41.0176 18.9247 40.962 18.728L39.133 12.328L43.669 8.24597C43.966 7.97797 44.075 7.55997 43.947 7.18097V7.18097Z" fill="#FF9400"/>
<path d="M91.947 7.18097C91.8842 6.99583 91.7685 6.83316 91.6142 6.71303C91.46 6.5929 91.2739 6.52057 91.079 6.50497L85.378 6.05197L82.911 0.590968C82.8325 0.41508 82.7047 0.265689 82.5431 0.160825C82.3815 0.0559612 82.193 0.000105879 82.0004 1.50379e-07C81.8077 -0.000105578 81.6192 0.0555428 81.4575 0.160229C81.2957 0.264916 81.1678 0.414166 81.089 0.589968L78.622 6.05197L72.921 6.50497C72.7295 6.52014 72.5464 6.59018 72.3936 6.7067C72.2408 6.82322 72.1248 6.98129 72.0595 7.162C71.9942 7.34271 71.9824 7.5384 72.0254 7.72567C72.0684 7.91294 72.1644 8.08385 72.302 8.21797L76.515 12.325L75.025 18.777C74.9798 18.9723 74.9943 19.1767 75.0666 19.3636C75.139 19.5506 75.2659 19.7115 75.4308 19.8254C75.5958 19.9394 75.7911 20.0011 75.9916 20.0026C76.1921 20.0041 76.3884 19.9454 76.555 19.834L82 16.204L87.445 19.834C87.6154 19.9471 87.8162 20.0053 88.0207 20.0008C88.2251 19.9963 88.4232 19.9293 88.5884 19.8089C88.7536 19.6884 88.878 19.5203 88.9448 19.327C89.0116 19.1338 89.0176 18.9247 88.962 18.728L87.133 12.328L91.669 8.24597C91.966 7.97797 92.075 7.55997 91.947 7.18097V7.18097Z" fill="#FF9400"/>
<path d="M67.947 7.18097C67.8842 6.99583 67.7685 6.83316 67.6142 6.71303C67.46 6.5929 67.2739 6.52057 67.079 6.50497L61.378 6.05197L58.911 0.590968C58.8325 0.41508 58.7047 0.265689 58.5431 0.160825C58.3815 0.0559612 58.193 0.000105879 58.0004 1.50379e-07C57.8077 -0.000105578 57.6192 0.0555428 57.4575 0.160229C57.2957 0.264916 57.1678 0.414166 57.089 0.589968L54.622 6.05197L48.921 6.50497C48.7295 6.52014 48.5464 6.59018 48.3936 6.7067C48.2408 6.82322 48.1248 6.98129 48.0595 7.162C47.9942 7.34271 47.9824 7.5384 48.0254 7.72567C48.0684 7.91294 48.1644 8.08385 48.302 8.21797L52.515 12.325L51.025 18.777C50.9798 18.9723 50.9943 19.1767 51.0666 19.3636C51.139 19.5506 51.2659 19.7115 51.4308 19.8254C51.5958 19.9394 51.7911 20.0011 51.9916 20.0026C52.1921 20.0041 52.3884 19.9454 52.555 19.834L58 16.204L63.445 19.834C63.6154 19.9471 63.8162 20.0053 64.0207 20.0008C64.2251 19.9963 64.4232 19.9293 64.5884 19.8089C64.7536 19.6884 64.878 19.5203 64.9448 19.327C65.0116 19.1338 65.0176 18.9247 64.962 18.728L63.133 12.328L67.669 8.24597C67.966 7.97797 68.075 7.55997 67.947 7.18097V7.18097Z" fill="#FF9400"/>
</svg>
