<svg width="20" height="20" viewBox="0 0 20 20" fill="none" xmlns="http://www.w3.org/2000/svg">
<path d="M17.6931 19.9926H17.5624C2.45258 19.1237 0.307214 6.37458 0.00732409 2.4837C-0.0168399 2.18118 0.0189265 1.87687 0.112574 1.58819C0.206221 1.29952 0.355908 1.03216 0.55306 0.801437C0.750211 0.570713 0.990951 0.381158 1.26149 0.243633C1.53202 0.106108 1.82703 0.0233159 2.12962 7.20958e-07H6.36652C6.67453 -0.000297449 6.97553 0.0918974 7.23054 0.264643C7.48554 0.437389 7.6828 0.682726 7.79676 0.968875L8.96556 3.84474C9.0781 4.12429 9.10603 4.43074 9.04588 4.72602C8.98573 5.02131 8.84015 5.29241 8.62723 5.50567L6.98937 7.1589C7.24521 8.61279 7.94147 9.953 8.98394 10.9982C10.0264 12.0434 11.3648 12.7432 12.818 13.0029L14.4866 11.3497C14.7031 11.1391 14.9767 10.9969 15.2735 10.9408C15.5702 10.8848 15.8769 10.9173 16.1552 11.0344L19.0542 12.1955C19.336 12.3131 19.5764 12.5119 19.7449 12.7666C19.9133 13.0213 20.0021 13.3204 20 13.6258V17.6858C20 18.2976 19.7569 18.8844 19.3243 19.317C18.8917 19.7496 18.3049 19.9926 17.6931 19.9926ZM2.31417 1.5379C2.11023 1.5379 1.91464 1.61891 1.77044 1.76312C1.62623 1.90732 1.54522 2.10291 1.54522 2.30684V2.36836C1.89894 6.92053 4.16733 17.6858 17.647 18.4547C17.748 18.461 17.8493 18.4472 17.945 18.4142C18.0406 18.3813 18.1289 18.3297 18.2046 18.2626C18.2803 18.1954 18.3421 18.114 18.3862 18.0229C18.4304 17.9319 18.4562 17.833 18.4621 17.7319V13.6258L15.5631 12.4646L13.3563 14.6561L12.9872 14.61C6.29732 13.7719 5.38996 7.08201 5.38996 7.0128L5.34382 6.64371L7.52763 4.43683L6.37421 1.5379H2.31417Z" fill="#ff891d"/>
</svg>
