<svg width="300" height="389" viewBox="0 0 300 389" fill="none" xmlns="http://www.w3.org/2000/svg">
<path d="M155.141 106.055H111.419C103.073 106.055 96.3064 112.821 96.3064 121.167V219.632C96.3064 227.978 103.073 234.744 111.419 234.744H155.141C163.487 234.744 170.253 227.978 170.253 219.632V121.167C170.253 112.821 163.487 106.055 155.141 106.055Z" fill="#6562BE"/>
<path d="M231.624 66.8291H228.357V369.563H231.624V66.8291Z" fill="#161730"/>
<path d="M141.249 302.08L114.196 304.737L116.534 348.089L140.441 346.679L141.249 302.08Z" fill="#6562BE"/>
<path d="M141.945 364.835L78.8383 364.749C78.7352 357.347 87.3488 354.631 94.716 353.909L116.525 347.943L115.666 332.331L140.638 330.81L141.945 364.835Z" fill="#161730"/>
<path d="M90.4522 354.553C90.4522 354.553 96.6073 363.769 95.0169 364.774C93.4266 365.78 78.8383 364.774 78.8383 364.774C78.8383 364.774 77.652 357.132 90.4522 354.553Z" fill="#FFCB39"/>
<path d="M141.111 331.317C141.111 331.317 130.125 336.226 131.793 342.071C133.46 347.917 135.309 358.405 130.245 359.703C125.182 361.001 127.34 364.818 127.34 364.818H141.954L141.111 331.317Z" fill="#FFCB39"/>
<path d="M115.501 349.172L115.114 349.687L122.195 355.004L122.582 354.488L115.501 349.172Z" fill="#FFCB39"/>
<path d="M107.894 352.121L107.462 352.6L113.756 358.265L114.187 357.785L107.894 352.121Z" fill="#FFCB39"/>
<path d="M99.9305 352.331L99.4416 352.752L104.463 358.592L104.952 358.172L99.9305 352.331Z" fill="#FFCB39"/>
<path d="M135.825 308.561L135.49 324.71L136.134 324.724L136.47 308.574L135.825 308.561Z" fill="#FFCB39"/>
<path d="M128.818 325.188L128.174 325.179L128.414 310.952L129.059 310.961L128.818 325.188Z" fill="#FFCB39"/>
<path d="M121.076 311.375L120.741 327.525L121.385 327.538L121.721 311.389L121.076 311.375Z" fill="#FFCB39"/>
<path d="M111.324 307.823L145.908 307.29C145.908 307.29 153.344 297.438 147.627 285.928C141.911 274.417 146.647 264.651 149.57 254.894C152.493 245.137 154.109 234.306 148.986 225.451C143.862 216.597 147.636 205.164 149.364 198.381C151.092 191.598 147.894 179.615 147.894 179.615L104.619 193.154C104.619 193.154 101.567 235.2 106.098 243.452C110.628 251.705 109.897 270.548 109.167 278.758C108.436 286.968 104.654 298.298 111.324 307.823Z" fill="#161730"/>
<path d="M106.141 116.594L84.9762 130.838L28.3082 34.9446L30.9731 33.3629L39.7587 47.2806L41.7703 45.8708L32.8729 30.0103L34.7212 27.5259L44.3063 44.0999L46.8078 42.3548L36.5264 25.9011L38.2887 25.1275L48.7592 40.9966L51.2608 39.2515L40.9107 24.4054L43.5756 22.8236L56.4187 42.4924L58.7569 28.7724L61.2413 30.6206L58.7827 46.4983L106.141 116.594Z" fill="#FD925A"/>
<path d="M41.2638 62.1372L65.7794 47.0433L113.851 125.121C115.841 128.371 116.461 132.277 115.575 135.984C114.688 139.69 112.368 142.893 109.123 144.891C105.878 146.892 101.972 147.523 98.2623 146.646C94.5523 145.77 91.3417 143.457 89.3353 140.215L41.2638 62.1372Z" fill="#FE4877"/>
<path d="M88.4406 305.141L61.568 301.049L53.1606 343.644L76.6806 348.166L88.4406 305.141Z" fill="#6562BE"/>
<path d="M73.6718 366.133L12.5251 350.513C14.2444 343.318 23.2621 342.776 30.5777 343.911L53.195 343.498L56.1694 328.153L80.7467 332.83L73.6718 366.133Z" fill="#161730"/>
<path d="M26.2966 343.49C26.2966 343.49 29.9931 353.934 28.1965 354.519C26.3998 355.103 12.5251 350.513 12.5251 350.513C12.5251 350.513 13.2472 342.836 26.2966 343.49Z" fill="#FFCB39"/>
<path d="M81.1164 333.449C81.1164 333.449 69.2533 335.495 69.4338 341.564C69.6143 347.633 68.8234 358.25 63.5968 358.276C58.3701 358.301 59.5134 362.514 59.5134 362.514L73.6718 366.133L81.1164 333.449Z" fill="#FFCB39"/>
<path d="M51.8868 344.449L51.3843 344.853L56.9313 351.755L57.4338 351.351L51.8868 344.449Z" fill="#FFCB39"/>
<path d="M48.4927 352.464L47.9598 352.825L43.2575 345.785L43.7905 345.424L48.4927 352.464Z" fill="#FFCB39"/>
<path d="M39.4578 350.573L38.8819 350.857L35.4519 343.962L36.0279 343.67L39.4578 350.573Z" fill="#FFCB39"/>
<path d="M81.593 310.095L77.3008 325.667L77.9224 325.839L82.2146 310.267L81.593 310.095Z" fill="#FFCB39"/>
<path d="M73.8163 310.609L70.0837 324.338L70.7058 324.507L74.4384 310.778L73.8163 310.609Z" fill="#FFCB39"/>
<path d="M66.6061 309.196L62.3139 324.769L62.9354 324.94L67.2276 309.368L66.6061 309.196Z" fill="#FFCB39"/>
<path d="M219.417 240.383L216.915 242.223L207.296 226.896L204.717 228.512L215.222 244.346L213.829 245.67L202.705 229.775L200.117 231.392L211.62 246.693L208.611 247.424L197.496 233.042L195.415 234.349L204.794 247.862L202.292 249.702L136.151 160.067L157.539 146.149L203.565 217.139L219.133 221.067L219.864 224.085L206.324 220.869L219.417 240.383Z" fill="#FD925A"/>
<path d="M127.217 126.401C130.329 124.191 134.191 123.308 137.954 123.946C141.717 124.583 145.072 126.69 147.282 129.802L200.345 204.524L176.907 221.169L123.849 146.453C121.64 143.346 120.754 139.49 121.385 135.73C122.017 131.971 124.114 128.615 127.217 126.401Z" fill="#FE4877"/>
<path d="M58.0262 303.335L91.6729 311.33C91.6729 311.33 101.31 303.593 98.6188 291.06C95.9281 278.526 102.917 270.196 108.144 261.462C113.37 252.728 117.6 242.619 114.823 232.776C112.047 222.933 118.511 212.78 121.855 206.634C125.199 200.487 125.053 188.091 125.053 188.091L79.7753 190.55C79.7753 190.55 66.468 230.549 68.8234 239.67C71.1789 248.791 65.8318 266.869 63.1154 274.64C60.3989 282.412 53.8999 292.47 58.0262 303.335Z" fill="#161730"/>
<path d="M109.304 113.697C108.801 113.794 108.305 113.92 107.817 114.075C97.9999 117.101 91.286 133.297 87.3145 144.257C85.0708 150.447 76.139 203.109 76.139 203.109L152.287 203.745C153.378 203.745 151.281 169.927 151.032 167.571C149.115 148.805 144.567 124.382 129.91 116.852C124.554 114.11 115.571 112.416 109.304 113.697Z" fill="#FE4877"/>
<path d="M78.8469 364.749V369.752H87.048H141.954V364.835L78.8469 364.749Z" fill="#FE4877"/>
<path d="M12.7744 350.401L11.5537 355.25L19.514 357.244L72.7864 370.551L73.9727 365.78L12.7744 350.401Z" fill="#FE4877"/>
<path d="M259.046 12.6884H205.017L178.007 59.479L205.017 106.27H259.046L286.065 59.479L259.046 12.6884Z" fill="#FE4877"/>
<path d="M256.089 17.8033H207.975L183.913 59.4791L207.975 101.146H256.089L280.151 59.4791L256.089 17.8033Z" fill="#FFCB39"/>
<path d="M240.306 271.503H236.867V262.399H191.28V270.686H187.842V258.96H240.306V271.503Z" fill="#FFCB39"/>
<path d="M274.658 361.181V279.463C274.658 273.486 269.812 268.64 263.835 268.64H162.921C156.943 268.64 152.098 273.486 152.098 279.463V361.181C152.098 367.158 156.943 372.004 162.921 372.004H263.835C269.812 372.004 274.658 367.158 274.658 361.181Z" fill="#6562BE"/>
<path d="M274.658 296.433V285.704H152.098V296.433H274.658Z" fill="#FFCB39"/>
<path d="M274.658 354.889V344.16H152.098V354.889H274.658Z" fill="#FFCB39"/>
<path d="M256.889 320.322V302.957H231.761V320.322H256.889Z" fill="#FFCB39"/>
<path d="M264.149 319.928L253.603 309.381L237.567 325.417L248.114 335.963L264.149 319.928Z" fill="#FE4877"/>
<path d="M188.604 289.725L185.767 278.64L158.851 285.531L161.689 296.616L188.604 289.725Z" fill="#FE4877"/>
<path d="M185.392 270.884V266.8H163.127V270.884H185.392Z" fill="#FFCC1E"/>
<path d="M265.52 270.832V266.749H243.255V270.832H265.52Z" fill="#FFCC1E"/>
<path d="M151.599 208.628C112.133 138.73 137.028 116.646 138.102 115.786L140.312 118.417L139.211 117.101L140.32 118.408C140.26 118.46 134.363 123.678 133.117 137.011C131.947 149.493 134.724 171.766 154.608 206.952L151.599 208.628Z" fill="#6562BE"/>
<path d="M111.213 111.118C108.838 113.068 106.592 115.17 104.49 117.411C102.366 119.66 100.357 122.015 98.4727 124.468C94.6916 129.39 91.4521 134.705 88.8102 140.32C86.1943 145.965 84.2302 151.889 82.956 157.978C81.7216 164.149 81.074 170.424 81.0218 176.718H80.635C79.5875 170.364 79.4803 163.89 80.3169 157.505C80.7657 154.295 81.4262 151.119 82.2941 147.997C83.202 144.883 84.2957 141.825 85.5694 138.842C88.1498 132.891 91.459 127.283 95.4209 122.147C97.3862 119.565 99.5168 117.113 101.8 114.806C104.082 112.45 106.548 110.279 109.175 108.316L111.213 111.118Z" fill="#6562BE"/>
<path d="M138.902 87.3317C138.877 87.3935 138.848 87.4538 138.816 87.5122C138.034 88.8619 135.773 88.5954 134.518 88.9994C132.798 89.541 131.079 90.0568 129.429 90.607C128.792 90.8047 123.041 92.1027 122.912 92.7045L121.004 100.871C120.222 104.232 120.205 107.387 118.348 110.327L118.012 110.826C114.832 115.339 108.213 119.079 102.848 120.119C100.269 120.626 97.5443 120.23 94.9223 120.738C88.432 122.01 82.1995 125.036 76.311 128.002C75.5975 128.354 66.5797 132.412 66.5797 133.16L65.7201 128.328L82.0534 118.485L65.4278 126.867L62.7543 111.625L81.4259 104.611L62.3761 109.476L60.4934 98.9198L81.4259 94.7934L59.8315 95.1889L58.138 85.9649C64.4782 86.8812 70.8632 87.4551 77.2652 87.6842C82.7411 87.8561 90.0138 89.1542 95.4037 87.9163C97.8709 87.3489 99.8137 85.7671 101.679 84.1424C106.431 80.1898 112.452 78.0891 118.631 78.228C121.606 78.2113 124.568 78.6224 127.426 79.4487C129.717 80.058 131.952 80.8633 134.105 81.8557C135.601 82.6294 139.977 84.9849 138.902 87.3317Z" fill="#FFCB39"/>
<path d="M135.489 103.665C135.494 106.031 134.559 108.302 132.891 109.98C131.223 111.657 128.958 112.605 126.592 112.614L126.085 112.691C126.085 113.241 126.085 113.8 126.085 114.35C126.085 115.683 126.085 117.015 126.085 118.348C126.085 119.207 126.437 120.179 125.93 120.927C125.373 121.602 124.65 122.12 123.832 122.431C121.666 123.394 116.826 123.385 116.809 119.973L116.766 108.797L115.562 90.2631L135.429 90.1771L135.489 103.665Z" fill="#FD925A"/>
<path d="M134.965 94.1744C136.246 94.1744 139.168 102.487 139.168 102.487H134.999L134.965 94.1744Z" fill="#FF534A"/>
<path d="M126.987 104.791C128.758 104.791 130.194 103.356 130.194 101.585C130.194 99.8138 128.758 98.3782 126.987 98.3782C125.216 98.3782 123.781 99.8138 123.781 101.585C123.781 103.356 125.216 104.791 126.987 104.791Z" fill="#FF534A"/>
<path d="M129.016 95.2232C129.043 95.1795 129.074 95.1391 129.111 95.1029C129.292 94.959 129.509 94.8669 129.738 94.8364C130.744 94.6215 133.306 93.9767 133.684 95.4639C133.985 96.6416 132.326 96.4697 131.449 96.4353C130.572 96.4009 128.414 96.2806 129.016 95.2232Z" fill="white"/>
<path d="M132.025 94.5613C132.025 94.5613 131.01 95.2662 132.025 96.5127C132.025 96.5127 134.002 96.7878 133.675 95.5069C133.63 95.3355 133.552 95.1748 133.444 95.0342C133.337 94.8935 133.202 94.7757 133.048 94.6877C132.895 94.5996 132.725 94.5431 132.549 94.5214C132.374 94.4997 132.195 94.5133 132.025 94.5613Z" fill="#0C0604"/>
<path d="M128.242 94.845C128.242 94.845 133.684 94.183 133.684 93.865C133.684 93.5469 133.993 92.2574 133.031 92.266C132.068 92.2746 127.271 93.8908 127.598 94.2088C127.924 94.5269 127.598 94.5613 128.242 94.845Z" fill="#161730"/>
<path d="M133.813 106.829C133.442 106.839 133.073 106.761 132.737 106.603C132.401 106.445 132.107 106.21 131.879 105.917L132.386 105.522C133.34 106.734 135.016 105.909 135.034 105.9L135.326 106.476C134.855 106.707 134.337 106.828 133.813 106.829Z" fill="#33270A"/>
<path d="M140.982 92.6012L124.159 94.2002L123.961 93.0569C122.311 102.229 124.133 112.012 124.133 112.012C121.554 108.574 121.46 99.2033 121.554 94.4839L115.442 95.3435L114.471 87.727C114.084 79.3455 121.434 81.9158 132.343 80.6178C143.252 79.3197 140.982 92.6012 140.982 92.6012Z" fill="#FFCB39"/>
<path d="M140.587 90.1685H126.686C124.925 90.1685 123.497 91.5964 123.497 93.3578V95.8593C123.497 97.6207 124.925 99.0486 126.686 99.0486H140.587C142.348 99.0486 143.776 97.6207 143.776 95.8593V93.3578C143.776 91.5964 142.348 90.1685 140.587 90.1685Z" fill="#161730"/>
<path d="M140.535 90.8906H128.896C127.419 90.8906 126.222 92.0876 126.222 93.5641V95.6531C126.222 97.1296 127.419 98.3266 128.896 98.3266H140.535C142.012 98.3266 143.209 97.1296 143.209 95.6531V93.5641C143.209 92.0876 142.012 90.8906 140.535 90.8906Z" fill="#FE4877"/>
<path d="M131.784 90.8906L130.658 92.6185L132.137 92.4208L129.334 98.3352L131.578 98.3782L134.002 91.7761L132.652 91.9308L133.245 90.8906H131.784Z" fill="white"/>
<path d="M137.793 90.8906L135.842 95.4811L136.822 95.0341L135.687 98.3352H138.025L139.16 93.8822L137.759 94.4754L139.16 90.8906H137.793Z" fill="white"/>
<path d="M117.798 100.14C119.83 100.14 121.477 98.4932 121.477 96.4612C121.477 94.4291 119.83 92.7819 117.798 92.7819C115.766 92.7819 114.118 94.4291 114.118 96.4612C114.118 98.4932 115.766 100.14 117.798 100.14Z" fill="#FD925A"/>
<path d="M119.242 98.2578L118.606 98.189C118.67 97.8887 118.665 97.5775 118.59 97.2795C118.516 96.9815 118.374 96.7045 118.176 96.4697C117.975 96.3038 117.743 96.1795 117.494 96.1042C117.244 96.0289 116.982 96.0042 116.723 96.0313L116.637 95.3952C117.236 95.3242 117.842 95.4575 118.356 95.7734C118.517 95.4128 118.538 95.0056 118.417 94.6301C118.398 94.5755 118.369 94.5252 118.331 94.4823C118.292 94.4394 118.245 94.4049 118.193 94.3808L118.399 93.7618C118.667 93.8691 118.882 94.0754 119.001 94.3378C119.106 94.6495 119.146 94.979 119.121 95.3068C119.096 95.6346 119.006 95.954 118.855 96.2462C119.233 96.8439 119.371 97.5625 119.242 98.2578Z" fill="#0C0604"/>
<path d="M139.469 85.2599L107.043 84.3401C106.501 84.3169 105.984 84.1006 105.587 83.7302C105.19 83.3597 104.938 82.8596 104.877 82.3199L104.697 80.721C104.651 80.3841 104.681 80.0413 104.785 79.7175C104.888 79.3938 105.063 79.0974 105.297 78.8501C105.53 78.6028 105.816 78.4109 106.133 78.2883C106.45 78.1658 106.79 78.1158 107.129 78.142L107.834 78.1936C107.482 75.6147 106.356 69.812 103.373 68.6171C99.5129 67.0698 98.103 60.2957 104.456 62.5136C110.809 64.7315 129.317 63.2099 129.807 68.4108C130.288 73.4655 142.255 68.5226 138.274 80.549L139.744 80.6608H140.028C140.584 80.7804 141.075 81.1025 141.406 81.5645C141.737 82.0265 141.884 82.5952 141.818 83.1597C141.753 83.7243 141.48 84.2442 141.052 84.6181C140.624 84.9921 140.072 85.1933 139.504 85.1825L139.469 85.2599Z" fill="#FB9159"/>
<path d="M96.2204 63.1068C97.5688 63.1068 98.6618 62.0137 98.6618 60.6654C98.6618 59.317 97.5688 58.224 96.2204 58.224C94.8721 58.224 93.779 59.317 93.779 60.6654C93.779 62.0137 94.8721 63.1068 96.2204 63.1068Z" fill="#FB9159"/>
<path d="M95.1545 240.529C93.2364 240.405 91.3776 239.814 89.7387 238.81C84.2455 235.715 78.8125 229.526 79.1392 223.594C79.2338 221.738 79.7152 220.525 80.6006 219.907C82.0878 218.875 84.4174 219.58 87.3746 220.482C89.4951 221.193 91.6763 221.709 93.8908 222.021C92.3692 219.038 90.1685 216.967 86.7729 216.58L86.8502 215.935C90.6671 216.373 93.0483 218.737 94.6645 222.099C98.5501 222.399 102.78 221.48 106.803 217.259C108.969 214.989 109.717 213.124 109.029 211.714C106.244 206.006 82.1824 208.275 81.9417 208.275L81.8815 207.639C82.8873 207.536 106.631 205.293 109.605 211.405C110.422 213.124 109.605 215.196 107.267 217.68C103.175 221.978 98.9111 222.975 94.9739 222.752C96.6245 226.577 97.3981 231.529 98.1632 236.403C98.4899 238.526 97.7764 239.524 97.123 239.979C96.5378 240.358 95.8512 240.55 95.1545 240.529ZM82.4746 220.07C81.9435 220.046 81.4181 220.187 80.9703 220.474C80.2568 220.972 79.8699 222.013 79.7839 223.663C79.4745 229.32 84.7183 235.286 90.0997 238.277C93.0139 239.902 95.5843 240.383 96.7964 239.524C97.5357 239.017 97.7936 238.019 97.5701 236.584C96.7878 231.615 95.9969 226.56 94.269 222.769C91.8747 222.464 89.5164 221.922 87.2285 221.153C85.6991 220.582 84.1004 220.218 82.4746 220.07Z" fill="white"/>
<path d="M62.9176 281.019C61.8173 277.907 67.9122 275.13 75.649 271.649C81.7611 268.881 88.6813 265.743 92.6959 262.012C94.269 260.542 94.8966 258.995 94.5699 257.387C93.3406 251.292 79.1564 246.048 79.0189 245.997L79.2338 245.395C79.8355 245.61 93.8994 250.811 95.206 257.258C95.5757 259.098 94.8794 260.852 93.1343 262.476C89.0423 266.285 82.0706 269.448 75.9413 272.233C69.0641 275.337 62.6168 278.251 63.5194 280.83L62.9176 281.019Z" fill="white"/>
<path d="M86.1281 306.542C83.1624 306.542 78.3913 304.823 73.3796 303.017C70.5378 301.914 67.6328 300.981 64.6799 300.223C63.2443 299.914 62.6168 299.553 62.591 299.011C62.5308 297.945 65.1183 297.051 70.964 295.126C72.924 294.481 75.1075 293.759 77.3597 292.951C75.6404 292.091 74.3682 291.343 74.2306 290.174C74.0931 289.005 75.1762 287.595 77.7294 285.558C81.0992 282.902 85.4662 278.216 89.6957 272.964C84.3831 266.68 76.0273 261.032 75.9413 260.929L76.3024 260.396C76.801 260.731 84.8988 266.19 90.1599 272.431C98.8165 261.703 107.129 248.842 106.751 246.014L107.387 245.928C107.826 249.169 99.2894 262.193 90.5725 272.93C92.9538 275.844 94.673 278.896 94.6816 281.646C94.6762 282.725 94.3915 283.784 93.8551 284.719C93.3188 285.655 92.5492 286.435 91.6213 286.985C87.6856 289.477 83.4701 291.497 79.0618 293.002C82.191 294.498 86.2313 296.604 88.3632 301.272C89.3346 303.404 89.4292 304.848 88.6383 305.708C88.3015 306.015 87.904 306.248 87.4717 306.391C87.0393 306.535 86.5816 306.586 86.1281 306.542ZM78.1764 293.346C75.7092 294.206 73.3022 295.066 71.1617 295.736C67.6199 296.905 63.2013 298.358 63.2357 298.977C63.2357 298.977 63.3217 299.269 64.8175 299.596C67.8005 300.357 70.7345 301.298 73.6031 302.416C79.6206 304.591 86.4978 307.066 88.1311 305.304C88.7157 304.668 88.5867 303.413 87.7443 301.573C85.5952 296.879 81.3657 294.859 78.2882 293.389L78.1764 293.346ZM90.1083 273.463C85.7585 278.784 81.4001 283.486 78.1248 286.065C75.8038 287.896 74.7722 289.177 74.8753 290.097C74.9785 291.017 76.3883 291.816 78.2108 292.676C82.8185 290.999 87.6153 288.962 91.2259 286.486C92.0619 285.993 92.7567 285.292 93.2431 284.452C93.7294 283.612 93.991 282.66 94.0025 281.689C93.9939 279.111 92.3778 276.239 90.1083 273.463Z" fill="white"/>
<path d="M137.879 269.758C137.179 269.754 136.481 269.697 135.79 269.586C132.162 269.018 129.558 267.488 128.053 265.038C125.191 260.353 126.532 252.9 128.913 244.922C125.913 242.729 122.649 240.921 119.199 239.541C109.743 235.776 104.946 232.543 104.989 229.939C104.989 228.305 106.871 227.626 106.949 227.6L107.172 228.202C107.172 228.202 105.651 228.77 105.634 229.921C105.616 231.073 107.353 234.125 119.44 238.913C122.869 240.286 126.115 242.079 129.102 244.252C129.833 241.793 130.658 239.283 131.475 236.799C132.033 235.079 132.592 233.403 133.108 231.761L133.718 231.959C133.202 233.601 132.652 235.294 132.085 236.996C131.225 239.575 130.366 242.154 129.652 244.656C139.168 251.774 144.601 261.496 143.269 266.353C142.874 267.729 141.687 269.758 137.879 269.758ZM129.437 245.326C127.176 253.063 125.895 260.267 128.578 264.703C129.996 267.015 132.369 268.399 135.85 268.95C139.607 269.534 141.936 268.588 142.59 266.216C143.896 261.557 138.635 252.238 129.437 245.326Z" fill="white"/>
<path d="M121.804 228.073C121.573 228.098 121.34 228.075 121.118 228.007C120.897 227.939 120.691 227.827 120.514 227.678C119.818 226.964 120.334 225.563 122.104 223.38C125.204 219.706 128.659 216.349 132.42 213.356C129.661 213.416 126.97 213.605 125.311 213.726C122.38 213.923 122.38 213.923 122.285 213.597L122.216 213.339L122.491 213.184L122.62 213.442L122.706 213.21C122.887 213.21 124.047 213.167 125.285 213.081C128.07 212.883 130.813 212.728 133.263 212.703C136.701 209.986 139.28 208.336 139.332 208.301L139.676 208.843C139.633 208.843 137.398 210.304 134.311 212.694C138.833 212.694 142.194 213.201 142.788 214.74C143.166 215.711 142.452 216.881 140.621 218.325C134.372 223.285 125.405 228.073 121.804 228.073ZM133.495 213.373C129.514 216.47 125.864 219.97 122.603 223.818C120.505 226.397 120.824 227.076 120.978 227.257C122.319 228.632 132.265 224.153 140.234 217.878C141.773 216.666 142.444 215.686 142.194 215.041C141.679 213.648 137.647 213.339 133.495 213.373Z" fill="white"/>
<path d="M136.022 304.805C135.162 304.805 133.495 304.118 129.858 302.029C123.274 298.246 119.93 293.381 120.686 288.678C120.874 287.548 121.286 286.467 121.898 285.498C120.385 283.624 118.803 281.638 117.196 279.575C115.809 277.86 114.815 275.862 114.283 273.722C113.752 271.582 113.695 269.351 114.118 267.187C117.041 250.776 143.346 234.228 143.63 234.065L143.974 234.607C143.707 234.77 117.626 251.172 114.746 267.273C114.341 269.349 114.396 271.487 114.905 273.54C115.415 275.592 116.367 277.508 117.694 279.153C119.259 281.156 120.798 283.091 122.268 284.922C124.007 282.654 126.519 281.103 129.325 280.563C135.807 279.231 137.484 283.89 139.108 288.403C139.7 290.327 140.541 292.165 141.61 293.871L141.077 294.24C139.978 292.488 139.111 290.602 138.498 288.627C136.899 284.174 135.386 279.97 129.463 281.199C126.751 281.706 124.331 283.22 122.689 285.438C124.692 287.913 126.566 290.191 128.225 292.203C135.102 300.593 137.492 303.542 136.658 304.522C136.583 304.616 136.485 304.692 136.375 304.741C136.264 304.79 136.143 304.813 136.022 304.805ZM122.328 286.031C121.822 286.876 121.481 287.809 121.322 288.782C120.617 293.2 123.841 297.825 130.177 301.47C135.248 304.384 136.048 304.247 136.194 304.135C136.65 303.43 132.326 298.186 127.752 292.641C126.119 290.673 124.279 288.446 122.328 286.031Z" fill="white"/>
</svg>
