<svg width="300" height="365" viewBox="0 0 300 365" fill="none" xmlns="http://www.w3.org/2000/svg">
<path d="M211.209 75.4597L204.756 88.4813L204.429 89.1355L203.492 90.7886L196.367 103.35L180.746 98.8685L185.714 87.9597L182.894 76.7769L185.431 75.389L187.465 84.2469L196.994 66.1864L199.434 67.3445L191.655 81.0467L193.971 82.3639L201.759 67.76L203.35 68.2815L195.766 83.3805L198.082 84.6889L205.048 69.5457L206.851 71.5524L200.424 86.0237L202.281 87.0757L208.769 74.3017L211.209 75.4597Z" fill="#FB9159"/>
<path d="M184.989 128.271L174.054 151.335L130.737 126.529C129.312 125.705 128.063 124.607 127.062 123.3C126.061 121.993 125.327 120.501 124.903 118.91C124.478 117.319 124.372 115.66 124.589 114.028C124.805 112.396 125.342 110.822 126.167 109.397C126.991 107.972 128.087 106.723 129.394 105.722C130.7 104.721 132.191 103.988 133.781 103.563C135.372 103.139 137.03 103.032 138.662 103.249C140.293 103.466 141.866 104.002 143.29 104.827L184.989 128.271Z" fill="#FB9159"/>
<path d="M183.416 93.3964L199.593 97.8164L175.044 149.01L153.342 136.466L183.416 93.3964Z" fill="#FB9159"/>
<path d="M146.075 215.691L197.595 315.249L215.532 306.276L179.261 201.335L146.075 215.691Z" fill="#FB9159"/>
<path d="M85.9795 240.797L54.9858 297.304L67.5389 311.66L117.026 253.023L126.167 205.667L92.9367 200.681L85.9795 240.797Z" fill="#FB9159"/>
<path d="M205.269 342.115L265.382 315.214C262.341 308.142 253.006 309.185 245.651 311.625L222.33 315.214L216.54 299.965L192.097 309.132L205.269 342.115Z" fill="#161730"/>
<path d="M205.269 342.115C205.269 342.115 210.652 351.98 214.233 347.498C217.813 343.016 218.723 339.427 222.313 339.427C225.902 339.427 234.866 339.427 235.758 334.945C235.993 333.884 236.434 332.879 237.058 331.988C237.681 331.098 238.475 330.339 239.392 329.756C240.31 329.173 241.333 328.777 242.404 328.59C243.475 328.403 244.572 328.43 245.633 328.669C250.115 329.553 254.597 329.553 255.499 324.178C256.4 318.803 264.463 321.526 265.364 320.589C266.266 319.652 265.364 315.214 265.364 315.214L205.269 342.115Z" fill="#FE4877"/>
<path d="M191.832 309.866C191.832 309.866 204.385 309.866 205.286 316.142C206.188 322.419 208.876 333.186 214.25 332.284C219.625 331.383 219.201 335.926 219.201 335.926L205.286 342.115L191.832 309.866Z" fill="#FFCB39"/>
<path d="M223.823 315.992L219.33 324.064L219.91 324.387L224.402 316.315L223.823 315.992Z" fill="#FFCB39"/>
<path d="M232.314 315.545L228.727 323.615L229.333 323.884L232.92 315.814L232.314 315.545Z" fill="#FFCB39"/>
<path d="M54.5881 288.34L32.6114 320.164L46.0661 348.86L93.5997 347.976C93.5997 347.976 89.1178 336.315 77.4576 337.208C65.7974 338.101 61.3154 338.092 61.3154 338.092L63.0835 321.048L73.3999 308.045L54.5881 288.34Z" fill="#161730"/>
<path d="M32.1605 319.731C32.1605 319.731 25.884 326.008 30.3925 327.802C34.901 329.597 28.6245 332.284 31.2765 334.079C33.9286 335.873 36.6514 334.079 35.7585 336.731C34.8656 339.383 33.9905 343.9 36.6425 343.9C39.2946 343.9 39.2946 345.668 39.2946 349.284C39.2946 352.9 41.0626 356.462 46.4639 353.766C51.8653 351.07 48.232 353.766 52.7493 354.65C57.2666 355.534 57.2313 352.882 60.8204 351.954C64.4095 351.026 61.7044 356.445 67.0969 354.65C72.4894 352.855 73.3734 350.168 75.168 351.061C76.9625 351.954 75.168 353.713 80.5516 352.829C85.9353 351.945 84.1407 349.24 86.8282 350.177C89.5156 351.114 89.4802 354.659 92.2118 352.829C94.9434 350.999 93.0958 347.445 93.0958 347.445H45.6153L32.1605 319.731Z" fill="#FE4877"/>
<path d="M38.7111 332.753C38.7111 332.753 52.7935 323.32 50.0973 317.044C47.401 310.767 51.8653 305.384 52.7493 301.795C53.6333 298.205 53.6333 292.459 50.0973 294.616L32.1606 319.731L38.7111 332.753Z" fill="#FFCB39"/>
<path d="M74.7613 347.534H93.1489C92.2005 344.575 90.3511 341.987 87.8595 340.131C85.3679 338.275 82.3585 337.244 79.2521 337.182C79.2521 337.182 73.4176 343.944 74.7613 347.534Z" fill="#FFCB39"/>
<path d="M62.7231 324.346L55.4784 324.782L55.5181 325.444L62.7628 325.008L62.7231 324.346Z" fill="#FFCB39"/>
<path d="M62.1144 329.814L54.1006 330.611L54.1662 331.271L62.1801 330.474L62.1144 329.814Z" fill="#FFCB39"/>
<path d="M61.2687 335.096L54.0941 336L54.177 336.658L61.3516 335.754L61.2687 335.096Z" fill="#FFCB39"/>
<path d="M28.0587 348.851C27.6153 348.848 27.1725 348.818 26.7327 348.762C13.2072 346.994 12.1464 342.406 12.1022 342.221L12.7564 342.088C12.7564 342.088 13.8702 346.376 26.8211 348.099C39.7719 349.823 56.8246 322.525 56.9926 322.251L57.5584 322.596C56.8777 323.701 41.3101 348.851 28.0587 348.851Z" fill="#FFCB39"/>
<path d="M207.01 265.462L202.042 267.23L177.351 276.07L172.047 277.97C169.174 278.996 164.569 267.115 164.091 265.426C163.269 262.332 162.624 259.344 161.952 256.427C161.899 256.179 161.846 255.932 161.784 255.693C160.537 250.336 159.132 245.191 156.365 240.002C156.259 239.799 156.153 239.595 156.038 239.392L155.516 238.508C151.865 232.32 146.517 226.892 143.423 220.43C141.832 217.106 141.54 215.4 141.655 213.19C141.655 212.933 141.655 212.668 141.699 212.394C141.779 211.315 141.911 210.078 142 208.487C142.274 203.678 142.194 196.482 139.162 192.344C138.225 194.829 137.182 197.525 136.086 200.301L135.537 201.671C132.682 208.849 129.517 216.39 126.75 221.933C125.505 224.458 124.412 227.055 123.479 229.712C123.382 230.048 123.303 230.366 123.223 230.684C123.144 231.003 123.029 231.506 122.949 231.913C122.896 232.134 122.861 232.364 122.816 232.585C121.614 239.498 122.958 246.65 120.863 253.483C120.472 254.751 119.969 255.982 119.36 257.161L119.024 257.797C116.593 262.217 112.924 266.036 109.609 269.837C109.379 270.103 109.15 270.359 108.929 270.624L108.876 270.686C108.08 271.57 98.4265 287.597 97.1535 286.51L92.5389 282.019L82.3197 272.136C81.029 270.872 79.7207 269.599 78.43 268.352C76.7327 266.69 75.0619 265.073 73.5149 263.552L64.4095 254.712C62.774 253.297 69.0064 246.022 72.3038 242.336L72.7723 241.814L74.1425 240.294C80.1892 233.31 83.9816 228.722 85.9353 219.236C86.0679 218.6 86.1828 217.963 86.2712 217.318C86.2712 217.097 86.3419 216.876 86.3773 216.646C87.3851 209.291 86.4392 201.733 86.1209 194.342V193.671C85.8027 185.52 86.3419 177.59 91.1864 170.394C92.0414 169.124 92.9931 167.921 94.0329 166.796L122.127 163.72L149.284 160.732L154.447 160.166L159.477 159.618C161.377 161.245 163.234 162.942 165.011 164.71C165.674 165.382 166.328 166.054 166.973 166.743L167.044 166.823L167.583 167.406L167.928 167.786C168.883 168.847 169.811 169.935 170.695 171.049C173.495 174.531 175.828 178.365 177.634 182.452C177.74 182.682 177.838 182.921 177.926 183.151C178.695 185.002 179.324 186.908 179.809 188.853C181.117 194.086 181.772 199.461 182.885 204.765C184.07 210.343 186.828 212.721 190.532 216.443C193.883 220.035 196.759 224.043 199.089 228.368C205.348 239.268 210.175 252.829 207.01 265.462Z" fill="#161730"/>
<path d="M114.25 90.2846C113.782 90.4261 113.366 90.5764 112.924 90.7443C104.261 94.2804 99.7436 108.61 97.2065 118.273C95.7656 123.736 85.4756 170.845 85.4756 170.845L167.079 164.56C168.078 164.462 158.115 133.99 157.664 132.01C154.049 116.284 147.481 96.0131 133.354 91.0272C128.182 89.1973 119.837 88.605 114.25 90.2846Z" fill="#FFCB39"/>
<path d="M140.099 59.4767V73.895C140.099 76.4248 139.094 78.8509 137.305 80.6398C135.516 82.4286 133.09 83.4335 130.56 83.4335L130.004 83.522V89.551C130.004 90.435 130.366 91.5223 129.827 92.3533C129.223 93.0706 128.443 93.6188 127.564 93.9445C125.248 94.9611 120.076 94.9258 120.076 91.2925V79.261L118.883 59.4767H140.099Z" fill="#FB9159"/>
<path d="M139.577 63.7642C140.948 63.7642 143.998 72.6574 143.998 72.6574H139.577V63.7642Z" fill="#FF534A"/>
<path d="M131.029 75.053C132.918 75.053 134.45 73.5213 134.45 71.6318C134.45 69.7424 132.918 68.2107 131.029 68.2107C129.14 68.2107 127.608 69.7424 127.608 71.6318C127.608 73.5213 129.14 75.053 131.029 75.053Z" fill="#FF534A"/>
<path d="M133.221 64.8427C133.252 64.7972 133.287 64.7556 133.327 64.7189C133.522 64.5664 133.754 64.4688 133.999 64.436C135.069 64.215 137.818 63.552 138.216 65.1255C138.525 66.3897 136.749 66.1952 135.82 66.1598C134.892 66.1245 132.603 66.0096 133.221 64.8427Z" fill="white"/>
<path d="M136.439 64.1089C136.439 64.1089 135.352 64.8515 136.439 66.1863C136.439 66.1863 138.552 66.4957 138.207 65.1255C138.158 64.9426 138.073 64.7712 137.958 64.621C137.842 64.4709 137.698 64.345 137.534 64.2506C137.37 64.1562 137.189 64.0951 137.001 64.0708C136.813 64.0464 136.622 64.0594 136.439 64.1089Z" fill="#0C0604"/>
<path d="M132.399 64.4448C132.399 64.4448 138.216 63.7641 138.216 63.4193C138.216 63.0746 138.552 61.7043 137.527 61.7043C136.501 61.7043 131.338 63.4193 131.71 63.7641C132.081 64.1089 131.719 64.1 132.399 64.4448Z" fill="#161730"/>
<path d="M138.304 77.2632C137.907 77.2746 137.512 77.1916 137.152 77.0211C136.793 76.8505 136.479 76.5972 136.236 76.2819L136.766 75.8752C137.774 77.1836 139.533 76.3349 139.604 76.2996L139.905 76.8919C139.405 77.1324 138.859 77.2592 138.304 77.2632Z" fill="#161730"/>
<path d="M128.527 64.1089C128.527 64.1089 128.35 74.0187 126.644 71.7556C124.938 69.4925 124.045 63.2072 124.045 63.2072L120.05 64.0912L120.686 74.6994C120.686 74.6994 110.591 65.9653 115.072 57.0191C119.554 48.0728 127.634 47.1534 133.018 48.948C138.402 50.7425 145.571 55.2245 145.571 61.501C145.571 67.7776 127.634 60.617 127.634 60.617L128.527 64.1089Z" fill="#6562BE"/>
<path d="M121.791 70.6683C123.964 70.6683 125.725 68.907 125.725 66.7344C125.725 64.5618 123.964 62.8005 121.791 62.8005C119.618 62.8005 117.857 64.5618 117.857 66.7344C117.857 68.907 119.618 70.6683 121.791 70.6683Z" fill="#FB9159"/>
<path d="M122.657 69.0506L121.994 68.9534C122.069 68.6226 122.067 68.2789 121.987 67.9492C121.907 67.6195 121.753 67.3127 121.535 67.0527C121.318 66.874 121.068 66.7398 120.8 66.6579C120.531 66.576 120.249 66.5479 119.97 66.5754L119.89 65.9212C120.6 65.8477 121.311 66.0468 121.879 66.4781C122.036 66.1022 122.058 65.6838 121.941 65.2935C121.898 65.1761 121.813 65.0786 121.703 65.0195L121.915 64.3918C122.055 64.4459 122.183 64.5278 122.291 64.6326C122.399 64.7374 122.484 64.863 122.542 65.0018C122.653 65.3421 122.695 65.7008 122.666 66.0573C122.637 66.4138 122.538 66.7611 122.374 67.0793C122.671 67.691 122.77 68.3801 122.657 69.0506Z" fill="#0C0604"/>
<path d="M123.86 60.2104C123.86 60.2104 123.86 73.6651 126.512 72.7723C129.164 71.8794 130.092 71.8883 129.164 59.3175C128.236 46.7468 123.86 60.2104 123.86 60.2104Z" fill="#6562BE"/>
<path d="M191.071 225.734C189.436 224.505 187.889 223.294 186.43 222.083C183.902 220.002 181.633 217.975 179.623 216.001L179.058 215.444C177.057 213.479 175.176 211.395 173.426 209.203C173.197 208.92 172.976 208.625 172.763 208.319C171.897 207.187 171.143 206.109 170.5 205.083C168.255 201.503 167.38 198.621 167.848 196.809C167.991 196.271 168.305 195.795 168.742 195.451C169.178 195.106 169.715 194.913 170.271 194.899L170.191 194.245C169.503 194.271 168.841 194.518 168.304 194.949C167.768 195.381 167.384 195.974 167.212 196.641C166.69 198.603 167.565 201.627 169.864 205.357C170.394 206.241 171.013 207.125 171.711 208.089L172.313 208.884C174.334 211.481 176.535 213.932 178.899 216.222L179.42 216.734C181.595 218.838 184.061 221.022 186.828 223.25C188.048 224.231 189.321 225.23 190.656 226.229C193.538 228.252 196.22 230.546 198.665 233.08C198.851 233.283 199.001 233.469 199.143 233.655C199.432 233.931 199.66 234.265 199.812 234.635C199.964 235.005 200.037 235.403 200.027 235.803C199.903 236.377 199.302 236.828 198.373 237.208C198.131 237.316 197.883 237.411 197.631 237.491C196.473 237.871 194.979 238.216 193.317 238.587L192.274 238.826C189.213 239.475 186.207 240.362 183.283 241.478C181.597 239.35 179.721 237.38 177.679 235.591C175.19 233.426 172.884 231.061 170.783 228.518C170.632 228.353 170.49 228.179 170.359 227.997C165.904 222.502 162.494 216.237 160.299 209.512C160.131 209.017 159.981 208.54 159.839 208.036C159.768 207.824 159.707 207.603 159.654 207.382C158.053 201.753 157.332 195.912 157.514 190.064C157.514 189.701 157.514 189.348 157.514 188.985C157.514 188.932 157.514 188.888 157.514 188.835C157.693 184.548 158.192 180.281 159.008 176.07C159.008 175.831 159.097 175.601 159.15 175.38C159.555 173.338 160.147 171.338 160.918 169.404C160.918 169.325 160.98 169.254 161.015 169.183C161.165 168.83 161.307 168.538 161.43 168.299C161.569 168.019 161.728 167.75 161.908 167.495L161.386 167.079C161.03 167.58 160.734 168.12 160.502 168.688C160.423 168.865 160.334 169.051 160.255 169.263C160.175 169.475 160.166 169.475 160.122 169.59C159.425 171.407 158.881 173.278 158.495 175.186C158.442 175.407 158.389 175.637 158.345 175.875C157.577 179.873 157.09 183.92 156.887 187.986C156.887 188.251 156.887 188.525 156.887 188.8C156.887 188.923 156.887 189.047 156.887 189.171C156.598 195.342 157.3 201.52 158.964 207.47C159.026 207.682 159.088 207.903 159.158 208.115C159.318 208.69 159.494 209.256 159.689 209.821C161.903 216.6 165.34 222.916 169.829 228.457C169.958 228.633 170.1 228.81 170.253 228.987C172.37 231.557 174.694 233.949 177.201 236.139C179.156 237.865 180.957 239.758 182.585 241.796C180.739 242.568 178.964 243.5 177.281 244.581C170.863 248.736 167.857 252.687 168.352 256.321C168.425 256.946 168.592 257.557 168.847 258.133C169.01 258.464 169.196 258.783 169.404 259.088C170.873 261.026 172.79 262.579 174.991 263.614C175.248 263.755 175.522 263.888 175.796 264.021C176.202 264.224 176.627 264.427 177.077 264.613C177.29 264.719 177.511 264.816 177.74 264.905C179.36 265.576 181.012 266.166 182.691 266.673C183.809 267.047 184.978 267.249 186.156 267.274C186.927 267.321 187.698 267.186 188.406 266.878C189.114 266.571 189.74 266.101 190.232 265.506C190.402 265.291 190.556 265.063 190.691 264.825C193.087 260.538 190.355 250.681 183.663 242.035C186.523 240.969 189.457 240.115 192.442 239.48L193.414 239.259C194.952 238.906 196.305 238.605 197.41 238.269C197.666 238.198 197.923 238.11 198.152 238.03C199.567 237.518 200.442 236.908 200.645 235.971C201.061 234.088 198.373 231.215 191.071 225.734ZM190.117 264.524C188.932 266.628 186.439 267.176 182.894 266.045C181.146 265.508 179.429 264.876 177.749 264.153C177.519 264.065 177.298 263.967 177.086 263.87C176.529 263.614 176.008 263.358 175.513 263.101C175.018 262.845 174.726 262.677 174.355 262.465C173.076 261.743 171.901 260.851 170.863 259.813C170.503 259.438 170.18 259.03 169.899 258.593C169.43 257.879 169.128 257.07 169.015 256.224C168.556 252.864 171.455 249.151 177.643 245.129C179.355 244.03 181.166 243.095 183.053 242.336C189.498 250.707 192.415 260.431 190.117 264.524Z" fill="white"/>
<path d="M179.579 213.331C178.952 210.997 176.671 209.335 172.763 208.354C172.436 208.274 172.092 208.195 171.729 208.124C169.601 207.71 167.443 207.461 165.276 207.382H164.604C162.898 207.32 161.245 207.337 159.662 207.426H158.973C152.906 207.718 146.991 209.422 141.699 212.403C141.699 212.677 141.699 212.942 141.655 213.198C146.992 210.099 153.001 208.34 159.167 208.071H159.848C161.139 208 162.473 207.983 163.853 208.018H164.577C167.187 208.062 169.786 208.358 172.339 208.902C172.719 208.99 173.091 209.088 173.435 209.185C176.582 210.069 178.43 211.545 178.952 213.481C179.12 214.115 179.159 214.777 179.066 215.426C179.036 215.7 178.989 215.971 178.925 216.239C178.094 219.705 174.638 223.895 170.324 227.961L169.837 228.412C166.001 231.91 161.966 235.183 157.753 238.216C157.178 238.64 156.612 239.038 156.073 239.427C156.188 239.631 156.294 239.834 156.4 240.037C156.94 239.657 157.496 239.259 158.071 238.835C162.324 235.788 166.392 232.491 170.253 228.96L170.739 228.501C174.973 224.496 178.421 220.341 179.438 216.77C179.515 216.518 179.577 216.261 179.623 216.001C179.813 215.119 179.798 214.206 179.579 213.331ZM175.813 264.047C175.813 264.047 175.813 264.047 175.813 264.003C175.755 263.697 175.657 263.399 175.522 263.119C174.797 261.519 172.87 259.998 169.908 258.593C169.572 258.434 169.236 258.283 168.874 258.133C168.511 257.983 168.193 257.841 167.831 257.7C165.849 256.939 163.828 256.286 161.775 255.746C161.837 255.985 161.89 256.232 161.943 256.48C164.081 257.051 166.183 257.751 168.237 258.575C168.635 258.734 169.015 258.902 169.378 259.07C169.89 259.309 170.377 259.547 170.827 259.795C172.155 260.439 173.342 261.341 174.319 262.447C174.595 262.786 174.813 263.169 174.965 263.579C175.038 263.758 175.091 263.945 175.124 264.135C175.336 265.391 174.655 266.699 173.126 268.007C171.911 269.009 170.578 269.858 169.157 270.536L169.457 271.128C170.878 270.451 172.216 269.611 173.444 268.626C175.292 267.132 176.079 265.594 175.813 264.047ZM135.591 195.474C135.157 191.301 133.283 188.808 130.012 188.066C125.592 187.067 119.333 189.401 112.809 193.538C112.615 193.67 112.412 193.794 112.208 193.918C110.935 194.758 109.653 195.686 108.38 196.57L107.85 196.977C105.808 198.515 103.784 200.203 101.839 201.98C97.6209 205.791 93.8217 210.04 90.5057 214.657C89.8603 215.541 89.2504 216.496 88.7376 217.406L88.6581 217.539C88.5343 217.733 88.4194 217.928 88.3133 218.122C83.5573 226.176 82.9208 232.682 86.4657 236.943L86.6513 237.164C87.9081 238.646 89.0714 240.205 90.1344 241.832C90.267 242.026 90.3819 242.203 90.4791 242.38C91.8936 244.74 91.9112 245.845 91.5311 246.358C90.93 247.171 89.0824 247.127 86.4215 246.499C86.2005 246.455 85.9707 246.393 85.7408 246.331C84.9982 246.146 84.1938 245.916 83.3451 245.651C80.3129 244.714 76.6796 243.335 72.8076 241.761L72.3391 242.283C76.4852 243.962 80.0743 245.315 83.0269 246.234C83.8225 246.482 84.5739 246.703 85.2723 246.879C85.511 246.941 85.732 247.003 85.953 247.047C89.1796 247.825 91.2571 247.808 92.0615 246.756C92.7422 245.872 92.4063 244.272 90.983 241.929C90.8769 241.752 90.762 241.567 90.6383 241.381C89.5195 239.686 88.2972 238.063 86.9784 236.519C86.9166 236.439 86.8547 236.369 86.8016 236.289C82.8501 231.241 85.6612 223.913 88.9321 218.37L89.2769 217.795C89.5863 217.291 89.9134 216.788 90.2493 216.275C93.7895 211.078 97.9451 206.329 102.626 202.131C104.447 200.477 106.321 198.922 108.213 197.472C108.389 197.348 108.566 197.207 108.743 197.074C110.069 196.093 111.395 195.164 112.712 194.316L113.304 193.936C119.599 189.966 125.681 187.748 129.844 188.702C132.806 189.374 134.503 191.673 134.901 195.527C135.122 197.657 135.325 199.717 135.502 201.715L136.05 200.345C135.926 198.754 135.758 197.136 135.591 195.474Z" fill="white"/>
<path d="M167.079 166.832C167.05 166.823 167.02 166.823 166.991 166.832C165.126 167.102 163.297 167.576 161.536 168.246C161.218 168.36 160.905 168.49 160.599 168.635C160.281 168.768 159.981 168.918 159.715 169.068H159.636C157.52 170.074 155.761 171.703 154.597 173.736C154.526 173.86 154.464 173.983 154.402 174.116C154.341 174.249 154.208 174.549 154.119 174.77C152.696 178.421 153.518 183.009 156.568 188.428C156.692 188.649 156.825 188.87 156.957 189.074C157.161 189.392 157.373 189.684 157.585 189.958C158.21 190.829 159.032 191.54 159.985 192.031C160.938 192.523 161.994 192.782 163.066 192.786H163.251C168.096 192.672 173.692 187.827 177.997 183.062C177.908 182.832 177.811 182.594 177.705 182.364C173.462 187.085 167.91 191.982 163.234 192.088H163.075C160.891 192.088 159.07 191.001 157.629 188.844C157.452 188.594 157.289 188.335 157.143 188.066L157.019 187.845C154.137 182.638 153.386 178.271 154.791 174.85C154.88 174.629 154.986 174.408 155.092 174.196L155.189 174.01C156.358 171.996 158.13 170.4 160.255 169.448L160.75 169.219C160.872 169.156 160.999 169.103 161.13 169.059C162.473 168.491 163.867 168.053 165.293 167.751C165.718 167.663 166.177 167.574 166.593 167.504H166.841L167.61 167.38L167.079 166.832Z" fill="white"/>
<path d="M251.317 309.742C251.317 309.742 249.372 321.146 251.317 321.42C253.262 321.694 266.717 314.524 266.717 314.524C266.717 314.524 264.613 306.754 251.317 309.742Z" fill="#FFCB39"/>
<path d="M204.535 60.7761H189.922C188.467 60.7761 187.288 61.9556 187.288 63.4105V93.5997C187.288 95.0546 188.467 96.234 189.922 96.234H204.535C205.99 96.234 207.169 95.0546 207.169 93.5997V63.4105C207.169 61.9556 205.99 60.7761 204.535 60.7761Z" fill="#161730"/>
<path d="M203.518 62.6857H190.824C189.73 62.6857 188.844 63.5722 188.844 64.6659V91.8494C188.844 92.943 189.73 93.8296 190.824 93.8296H203.518C204.612 93.8296 205.499 92.943 205.499 91.8494V64.6659C205.499 63.5722 204.612 62.6857 203.518 62.6857Z" fill="#6562BE"/>
<path d="M183.716 76.3614L188.87 72.7634L190.073 77.3161L184.441 81.7539L183.716 76.3614Z" fill="#FB9159"/>
<path d="M121.34 163.623L96.0308 160.343L106.259 111.51C106.952 108.264 108.906 105.426 111.691 103.619C114.475 101.812 117.863 101.185 121.11 101.874C124.361 102.57 127.202 104.528 129.009 107.318C130.816 110.108 131.441 113.501 130.746 116.752L121.34 163.623Z" fill="#FB9159"/>
<path d="M168.723 158.257L185.016 161.156L185.007 162.827L168.308 160.272L167.769 162.88L184.335 164.834L182.983 167.168L167.23 165.523L166.796 167.618L167.928 167.795L171.384 168.334L172.233 168.467L180.958 169.837L180.614 172.516L173.983 171.543L173.108 171.411L170.695 171.057L149.682 167.415L98.5502 160.573L103.784 136.05L154.013 151.353H154.031L160.873 152.13L172.71 144.687L175.044 146.04L164.887 152.634L185.042 156.135L184.698 158.805L169.254 155.649L168.723 158.257Z" fill="#FB9159"/>
<path d="M121.605 38.6845H102.069V55.0654H12.5884V28.5979H102.069V33.5396L121.605 38.6845Z" fill="#FE4877"/>
<path d="M276.635 26.715V48.1347H188.172L175.177 55.0654L187.783 39.4625V26.715H276.635Z" fill="#FE4877"/>
<path d="M110.891 77.7581L97.6574 84.6358V91.6195H51.662V67.6715H97.6574V78.6068L110.891 77.7581Z" fill="#FE4877"/>
<path d="M289.869 75.8663V101.07H230.004V85.9264L219.289 84.6888L230.004 80.4897V75.8663H289.869Z" fill="#FE4877"/>
<path d="M290.497 119.979V157.788H199.753V119.979H206.683V109.265L216.867 119.979H290.497Z" fill="#FE4877"/>
</svg>
