<svg width="350" height="327" viewBox="0 0 350 327" fill="none" xmlns="http://www.w3.org/2000/svg">
<path d="M139.305 213.076L143.37 274.715L161.97 275.18L165.852 213.738L139.305 213.076Z" fill="#FFCB39"/>
<path d="M143.145 271.333L162.435 268.423L161.371 294.801C161.371 294.801 181.471 300.197 189.552 302.24C197.633 304.283 185.128 311.047 177.399 309.476C165.591 307.073 156.968 308.849 148.901 308.708C147.43 308.685 146.024 308.097 144.975 307.067C143.926 306.036 143.313 304.64 143.265 303.17L143.145 271.333Z" fill="#FB9159"/>
<path d="M162.251 271.085L143.303 274.467L143.395 274.987L162.343 271.605L162.251 271.085Z" fill="black"/>
<path d="M147.803 276.985L147.276 277.013L148.105 292.899L148.633 292.871L147.803 276.985Z" fill="black"/>
<path d="M153.006 276.688L152.479 276.72L153.435 292.437L153.962 292.405L153.006 276.688Z" fill="black"/>
<path d="M157.958 276.284L157.431 276.31L158.251 292.55L158.778 292.523L157.958 276.284Z" fill="black"/>
<path d="M141.771 307.278L193.906 307.214C193.997 301.289 186.861 299.112 180.802 298.535L162.745 293.786L163.449 281.295L142.877 280.048L141.771 307.278Z" fill="#6562BE"/>
<path d="M141.863 306.904C141.863 306.904 141.024 315.739 144.441 312.85C147.858 309.962 149.373 308.743 150.902 310.166C152.431 311.589 155.08 313.935 156.411 311.413C157.743 308.891 158.947 312.822 163.189 311.956C167.43 311.089 166.07 308.891 167.317 309.25C168.564 309.61 167.169 313.935 171.002 312.315C174.834 310.695 174.067 308.349 176.159 309.067C178.251 309.786 180.337 314.865 184.324 310.166C188.312 305.467 188.502 315.993 190.785 313.428C193.067 310.864 193.878 306.968 193.878 306.968L141.863 306.904Z" fill="#FE4877"/>
<path d="M334.451 31.8514H113.964V177.188H334.451V31.8514Z" fill="#FFCB39"/>
<path d="M334.451 31.8514H113.964V51.6133H334.451V31.8514Z" fill="#161730"/>
<path d="M198.612 63.6395H139.615C136.717 63.6395 134.367 65.9894 134.367 68.8882V90.3409C134.367 93.2397 136.717 95.5896 139.615 95.5896H198.612C201.511 95.5896 203.861 93.2397 203.861 90.3409V68.8882C203.861 65.9894 201.511 63.6395 198.612 63.6395Z" fill="#FE4877"/>
<path d="M229.674 82.7391H219.093C218.279 82.7391 217.62 83.3984 217.62 84.2116V94.2017C217.62 95.0149 218.279 95.6742 219.093 95.6742H229.674C230.488 95.6742 231.147 95.0149 231.147 94.2017V84.2116C231.147 83.3984 230.488 82.7391 229.674 82.7391Z" fill="#FE4877"/>
<path d="M257.341 82.7391H246.759C245.946 82.7391 245.287 83.3984 245.287 84.2116V94.2017C245.287 95.0149 245.946 95.6742 246.759 95.6742H257.341C258.154 95.6742 258.814 95.0149 258.814 94.2017V84.2116C258.814 83.3984 258.154 82.7391 257.341 82.7391Z" fill="#6562BE"/>
<path d="M284.677 82.7391H274.095C273.281 82.7391 272.622 83.3984 272.622 84.2116V94.2017C272.622 95.0149 273.281 95.6742 274.095 95.6742H284.677C285.49 95.6742 286.149 95.0149 286.149 94.2017V84.2116C286.149 83.3984 285.49 82.7391 284.677 82.7391Z" fill="#FE4877"/>
<path d="M312.343 82.7391H301.761C300.948 82.7391 300.289 83.3984 300.289 84.2116V94.2017C300.289 95.0149 300.948 95.6742 301.761 95.6742H312.343C313.156 95.6742 313.816 95.0149 313.816 94.2017V84.2116C313.816 83.3984 313.156 82.7391 312.343 82.7391Z" fill="#FE4877"/>
<path d="M174.672 103.607H164.09C163.277 103.607 162.618 104.266 162.618 105.08V115.07C162.618 115.883 163.277 116.542 164.09 116.542H174.672C175.486 116.542 176.145 115.883 176.145 115.07V105.08C176.145 104.266 175.486 103.607 174.672 103.607Z" fill="#FE4877"/>
<path d="M202.008 103.607H191.426C190.613 103.607 189.953 104.266 189.953 105.08V115.07C189.953 115.883 190.613 116.542 191.426 116.542H202.008C202.821 116.542 203.48 115.883 203.48 115.07V105.08C203.48 104.266 202.821 103.607 202.008 103.607Z" fill="#FE4877"/>
<path d="M229.674 103.607H219.093C218.279 103.607 217.62 104.266 217.62 105.08V115.07C217.62 115.883 218.279 116.542 219.093 116.542H229.674C230.488 116.542 231.147 115.883 231.147 115.07V105.08C231.147 104.266 230.488 103.607 229.674 103.607Z" fill="#FE4877"/>
<path d="M257.567 103.607H246.985C246.171 103.607 245.512 104.266 245.512 105.08V115.07C245.512 115.883 246.171 116.542 246.985 116.542H257.567C258.38 116.542 259.039 115.883 259.039 115.07V105.08C259.039 104.266 258.38 103.607 257.567 103.607Z" fill="#FE4877"/>
<path d="M284.909 103.607H274.327C273.514 103.607 272.855 104.266 272.855 105.08V115.07C272.855 115.883 273.514 116.542 274.327 116.542H284.909C285.722 116.542 286.382 115.883 286.382 115.07V105.08C286.382 104.266 285.722 103.607 284.909 103.607Z" fill="#FE4877"/>
<path d="M312.569 103.607H301.987C301.174 103.607 300.514 104.266 300.514 105.08V115.07C300.514 115.883 301.174 116.542 301.987 116.542H312.569C313.382 116.542 314.041 115.883 314.041 115.07V105.08C314.041 104.266 313.382 103.607 312.569 103.607Z" fill="#FE4877"/>
<path d="M312.569 124.362H301.987C301.174 124.362 300.514 125.022 300.514 125.835V135.825C300.514 136.638 301.174 137.297 301.987 137.297H312.569C313.382 137.297 314.041 136.638 314.041 135.825V125.835C314.041 125.022 313.382 124.362 312.569 124.362Z" fill="#FE4877"/>
<path d="M147.006 103.607H136.424C135.611 103.607 134.951 104.266 134.951 105.08V115.07C134.951 115.883 135.611 116.542 136.424 116.542H147.006C147.819 116.542 148.478 115.883 148.478 115.07V105.08C148.478 104.266 147.819 103.607 147.006 103.607Z" fill="#FE4877"/>
<path d="M147.006 124.362H136.424C135.611 124.362 134.951 125.022 134.951 125.835V135.825C134.951 136.638 135.611 137.297 136.424 137.297H147.006C147.819 137.297 148.478 136.638 148.478 135.825V125.835C148.478 125.022 147.819 124.362 147.006 124.362Z" fill="#FE4877"/>
<path d="M174.672 124.362H164.09C163.277 124.362 162.618 125.022 162.618 125.835V135.825C162.618 136.638 163.277 137.297 164.09 137.297H174.672C175.486 137.297 176.145 136.638 176.145 135.825V125.835C176.145 125.022 175.486 124.362 174.672 124.362Z" fill="#161730"/>
<path d="M202.008 124.362H191.426C190.613 124.362 189.953 125.022 189.953 125.835V135.825C189.953 136.638 190.613 137.297 191.426 137.297H202.008C202.821 137.297 203.48 136.638 203.48 135.825V125.835C203.48 125.022 202.821 124.362 202.008 124.362Z" fill="#6562BE"/>
<path d="M229.674 124.362H219.093C218.279 124.362 217.62 125.022 217.62 125.835V135.825C217.62 136.638 218.279 137.297 219.093 137.297H229.674C230.488 137.297 231.147 136.638 231.147 135.825V125.835C231.147 125.022 230.488 124.362 229.674 124.362Z" fill="#FE4877"/>
<path d="M257.567 124.362H246.985C246.171 124.362 245.512 125.022 245.512 125.835V135.825C245.512 136.638 246.171 137.297 246.985 137.297H257.567C258.38 137.297 259.039 136.638 259.039 135.825V125.835C259.039 125.022 258.38 124.362 257.567 124.362Z" fill="#FE4877"/>
<path d="M284.909 124.362H274.327C273.514 124.362 272.855 125.022 272.855 125.835V135.825C272.855 136.638 273.514 137.297 274.327 137.297H284.909C285.722 137.297 286.382 136.638 286.382 135.825V125.835C286.382 125.022 285.722 124.362 284.909 124.362Z" fill="#161730"/>
<path d="M147.006 145.111H136.424C135.611 145.111 134.951 145.77 134.951 146.583V156.573C134.951 157.386 135.611 158.046 136.424 158.046H147.006C147.819 158.046 148.478 157.386 148.478 156.573V146.583C148.478 145.77 147.819 145.111 147.006 145.111Z" fill="#FE4877"/>
<path d="M174.672 145.111H164.09C163.277 145.111 162.618 145.77 162.618 146.583V156.573C162.618 157.386 163.277 158.046 164.09 158.046H174.672C175.486 158.046 176.145 157.386 176.145 156.573V146.583C176.145 145.77 175.486 145.111 174.672 145.111Z" fill="#FE4877"/>
<path d="M202.008 145.111H191.426C190.613 145.111 189.953 145.77 189.953 146.583V156.573C189.953 157.386 190.613 158.046 191.426 158.046H202.008C202.821 158.046 203.48 157.386 203.48 156.573V146.583C203.48 145.77 202.821 145.111 202.008 145.111Z" fill="#FE4877"/>
<path d="M229.674 145.111H219.093C218.279 145.111 217.62 145.77 217.62 146.583V156.573C217.62 157.386 218.279 158.046 219.093 158.046H229.674C230.488 158.046 231.147 157.386 231.147 156.573V146.583C231.147 145.77 230.488 145.111 229.674 145.111Z" fill="#161730"/>
<path d="M221.171 129.505C222.157 129.505 224.792 133.134 224.792 133.134L234.655 119.628" stroke="#161730" stroke-width="3.28" stroke-miterlimit="10"/>
<path d="M304.171 87.6779C305.157 87.6779 307.792 91.2992 307.792 91.2992L317.655 77.8005" stroke="#161730" stroke-width="3.28" stroke-miterlimit="10"/>
<path d="M134.881 13.5762H134.874C131.602 13.5762 128.949 16.2289 128.949 19.5012V34.6555C128.949 37.9278 131.602 40.5805 134.874 40.5805H134.881C138.153 40.5805 140.806 37.9278 140.806 34.6555V19.5012C140.806 16.2289 138.153 13.5762 134.881 13.5762Z" fill="#6562BE"/>
<path d="M156.291 13.5762H156.284C153.012 13.5762 150.359 16.2289 150.359 19.5012V34.6555C150.359 37.9278 153.012 40.5805 156.284 40.5805H156.291C159.564 40.5805 162.216 37.9278 162.216 34.6555V19.5012C162.216 16.2289 159.564 13.5762 156.291 13.5762Z" fill="#6562BE"/>
<path d="M290.341 13.5762H290.334C287.062 13.5762 284.409 16.2289 284.409 19.5012V34.6555C284.409 37.9278 287.062 40.5805 290.334 40.5805H290.341C293.613 40.5805 296.266 37.9278 296.266 34.6555V19.5012C296.266 16.2289 293.613 13.5762 290.341 13.5762Z" fill="#6562BE"/>
<path d="M311.744 13.5762H311.737C308.465 13.5762 305.812 16.2289 305.812 19.5012V34.6555C305.812 37.9278 308.465 40.5805 311.737 40.5805H311.744C315.017 40.5805 317.669 37.9278 317.669 34.6555V19.5012C317.669 16.2289 315.017 13.5762 311.744 13.5762Z" fill="#6562BE"/>
<path d="M21.4105 279.16H11.8008V236.163H22.0798V238.981H14.6189V276.342H21.4105V279.16Z" fill="#FFCB39"/>
<path d="M95.5826 207.306H28.6107C23.7119 207.306 19.7407 211.277 19.7407 216.176V298.88C19.7407 303.779 23.7119 307.75 28.6107 307.75H95.5826C100.481 307.75 104.453 303.779 104.453 298.88V216.176C104.453 211.277 100.481 207.306 95.5826 207.306Z" fill="#6562BE"/>
<path d="M42.5109 207.306H33.7184V307.75H42.5109V207.306Z" fill="#FFCB39"/>
<path d="M90.4185 207.306H81.626V307.75H90.4185V207.306Z" fill="#FFCB39"/>
<path d="M160.201 187.107L176.631 186.339L176.335 189.256L160.131 189.784L160.068 192.053L174.158 191.63L174.299 194.681L159.983 195.089L159.384 195.111L157.405 195.054L143.173 194.667L107.905 188.559L85.9589 145.266L106.58 137.953L119.607 174.405L141.412 178.907L151.656 178.287L161.864 169.036L164.358 169.945L155.636 178.089L159.243 178.258L175.786 178.026L175.905 180.682L160.371 180.802L160.328 182.415L176.539 182.408L176.976 184.923L160.251 185.17L160.201 187.107Z" fill="#FB9159"/>
<path d="M113.132 149.468L90.3477 159.008L80.3315 135.087C79.7381 133.67 79.4301 132.149 79.4251 130.613C79.4201 129.077 79.7183 127.555 80.3025 126.134C80.8867 124.713 81.7454 123.421 82.8296 122.332C83.9137 121.244 85.202 120.38 86.6205 119.79L87.8487 119.276C90.7063 118.079 93.9222 118.067 96.7889 119.241C99.6556 120.416 101.938 122.681 103.135 125.539L113.151 149.46L113.132 149.468Z" fill="#FE4877"/>
<path d="M140.482 155.228V155.249L140.087 155.242L140.482 155.228Z" fill="#FFCB39"/>
<path d="M169.318 246.344C171.805 253.974 167.676 263.435 167.676 263.435L140.545 266.07C142.659 257.919 141.701 249.507 138.157 244.124C134.613 238.742 136.079 240.038 136.043 225.581C136.043 220.91 134.395 217.691 132.183 215.478C127.554 210.843 120.396 210.596 120.396 210.596C112.259 208.482 105.502 212.886 94.54 205.601C86.0857 199.965 93.1802 177.42 93.1802 177.42C93.1802 177.42 104.896 176.546 135.198 179.167C137.59 179.372 139.967 179.73 142.314 180.238H142.412C151.726 182.528 158.003 186.706 162.202 191.644L162.273 191.729C173.299 204.798 169.825 223.087 169.318 225.546C168.649 228.97 166.838 238.728 169.318 246.344Z" fill="#161730"/>
<path d="M105.819 213.766L109.884 275.405L128.484 275.87L132.366 214.436L105.819 213.766Z" fill="#FFCB39"/>
<path d="M75.6165 116.028C75.236 116.148 74.912 116.274 74.5315 116.408C67.4088 119.29 63.6889 131.098 61.6035 139.045C60.427 143.532 58.0245 180.943 58.0245 180.943C58.0245 180.943 115.514 180.943 115.521 180.943C117.085 186.424 111.709 151.966 111.336 150.338C108.363 137.41 102.959 120.748 91.3485 116.641C87.1002 115.133 80.217 114.654 75.6165 116.028Z" fill="#161730"/>
<path d="M104.15 95.4276L101.627 107.003C101.184 109.035 99.9513 110.809 98.2009 111.933C96.4505 113.057 94.3254 113.44 92.2925 112.998H91.8346C91.7289 113.47 91.6303 113.942 91.5246 114.407C91.278 115.549 91.0244 116.697 90.7778 117.839C90.6158 118.543 90.7285 119.48 90.1437 120.058C89.5292 120.533 88.8 120.836 88.0301 120.938C85.987 121.354 81.8444 120.417 82.4785 117.486L84.5921 107.848L87.1002 91.7289L104.15 95.4276Z" fill="#FB9159"/>
<path d="M102.994 98.7742C104.093 99.0137 105.002 106.7 105.002 106.7L101.43 105.925L102.994 98.7742Z" fill="#FF534A"/>
<path d="M94.7372 106.411C96.2897 106.411 97.5482 105.153 97.5482 103.6C97.5482 102.048 96.2897 100.789 94.7372 100.789C93.1847 100.789 91.9261 102.048 91.9261 103.6C91.9261 105.153 93.1847 106.411 94.7372 106.411Z" fill="#FF534A"/>
<path d="M94.3356 94.8711C94.3356 94.8711 95.7447 93.5889 98.5628 95.2234C101.056 96.6099 103.854 97.3578 106.707 97.4004C108.229 97.4775 109.738 97.0892 111.033 96.2872C112.354 95.4035 113.393 94.1588 114.027 92.7012C114.41 91.8402 114.453 90.866 114.147 89.9747C113.953 89.5242 113.67 89.118 113.314 88.7812C112.958 88.4444 112.536 88.184 112.076 88.0161C110.237 87.3116 107.961 87.6004 106.15 88.2416C105.313 88.5339 104.45 88.7439 103.572 88.8686C101.909 89.1222 100.218 89.1786 98.5487 89.3829C97.2488 89.6092 95.9256 89.6708 94.6104 89.5661C94.2159 89.5167 93.6029 89.4533 93.3916 89.0518C93.2718 88.8263 93.455 88.5727 93.3916 88.3895C93.3282 88.2063 93.4338 88.1288 93.1802 88.1429C91.2498 88.2909 88.5233 87.6427 86.762 88.615C84.1412 90.024 78.7234 96.1745 84.9232 102.325L92.7716 95.3925L89.1081 112.301C89.1081 112.301 94.6808 117.712 99.225 116.69C102.311 115.986 100.373 112.026 101.339 108.785C101.705 107.588 102.142 106.672 100.916 106.39L99.4082 106.059C98.9919 105.971 98.5586 106.01 98.1652 106.173C97.7717 106.335 97.4364 106.612 97.203 106.968C95.7306 109.25 92.68 113.527 93.2225 109.032C93.9693 103.142 94.3356 94.8711 94.3356 94.8711Z" fill="#6562BE"/>
<path d="M88.2979 102.691C90.0838 102.691 91.5316 101.243 91.5316 99.4575C91.5316 97.6716 90.0838 96.2238 88.2979 96.2238C86.5119 96.2238 85.0641 97.6716 85.0641 99.4575C85.0641 101.243 86.5119 102.691 88.2979 102.691Z" fill="#FB9159"/>
<path d="M89.1433 99.6548C89.3062 100.214 89.2764 100.812 89.0588 101.353L88.5585 101.184C88.6822 100.933 88.7465 100.657 88.7465 100.377C88.7465 100.097 88.6822 99.8211 88.5585 99.5702C88.4145 99.3874 88.2359 99.2348 88.0328 99.1211C87.8296 99.0075 87.6061 98.935 87.3749 98.908L87.4243 98.3866C87.9993 98.4445 88.5308 98.7191 88.9108 99.1546C89.1597 98.8442 89.2852 98.4527 89.2631 98.0555C89.2448 97.9503 89.1929 97.8539 89.1151 97.7807L89.3828 97.3298C89.5854 97.4692 89.7267 97.6811 89.7774 97.9216C89.8059 98.2369 89.7693 98.5547 89.6699 98.8552C89.5706 99.1558 89.4105 99.4327 89.1997 99.6689L89.1433 99.6548Z" fill="#0C0604"/>
<path d="M97.6962 98.5346C97.7222 98.4993 97.756 98.4704 97.7948 98.4501C97.9789 98.3619 98.1834 98.3254 98.3866 98.3444C99.2884 98.3444 101.613 98.2951 101.649 99.6336C101.684 100.705 100.289 100.232 99.535 100.042C98.7812 99.8521 96.9706 99.3378 97.6962 98.5346Z" fill="white"/>
<path d="M100.402 98.4993C100.402 98.4993 99.4012 98.915 100.042 100.176C100.042 100.176 101.684 100.796 101.649 99.6336C101.641 99.4772 101.603 99.3237 101.537 99.182C101.47 99.0403 101.376 98.9131 101.26 98.8078C101.145 98.7024 101.009 98.6209 100.862 98.568C100.714 98.5151 100.558 98.4917 100.402 98.4993Z" fill="#0C0604"/>
<path d="M97.0974 98.0625C97.0974 98.0625 101.888 98.5345 101.952 98.2598C102.015 97.985 102.529 96.9423 101.698 96.7662C100.867 96.5901 96.4492 97.0621 96.6676 97.3932C96.886 97.7243 96.6042 97.668 97.0974 98.0625Z" fill="#161730"/>
<path d="M101.134 107.299C101.207 107.879 101.156 108.468 100.984 109.027C100.811 109.586 100.521 110.102 100.134 110.54L97.4214 109.772C97.4214 109.772 96.6605 106.003 101.134 107.299Z" fill="#FB9159"/>
<path d="M100.232 109.455C99.8012 109.481 99.3714 109.382 98.9959 109.168C98.6205 108.954 98.3157 108.635 98.1189 108.25L98.598 108.017C99.1898 109.257 100.796 108.863 100.817 108.863L100.944 109.37C100.711 109.428 100.472 109.456 100.232 109.455Z" fill="#0C0604"/>
<path d="M107.179 104.136L106.658 104.023L107.7 99.2532L88.9319 96.6465L89.0024 96.1251L108.335 98.8094L107.179 104.136Z" fill="#161730"/>
<path d="M109.659 272.03L128.928 269.128L127.864 295.505C127.864 295.505 147.964 300.895 156.045 302.945C164.126 304.995 151.62 311.744 143.892 310.173C132.077 307.778 123.461 309.553 115.394 309.405C113.923 309.383 112.517 308.795 111.468 307.764C110.419 306.733 109.806 305.338 109.758 303.868L109.659 272.03Z" fill="#6562BE"/>
<path d="M128.759 271.773L109.811 275.155L109.904 275.675L128.852 272.293L128.759 271.773Z" fill="black"/>
<path d="M114.274 277.697L113.746 277.724L114.573 293.611L115.101 293.583L114.274 277.697Z" fill="black"/>
<path d="M119.525 277.374L118.998 277.406L119.954 293.123L120.481 293.091L119.525 277.374Z" fill="black"/>
<path d="M124.48 276.978L123.952 277.004L124.772 293.244L125.3 293.217L124.48 276.978Z" fill="black"/>
<path d="M109.779 297.231C109.779 297.231 124.384 301.169 126.208 309.025C126.208 309.025 112.555 312.625 110.061 305.34L109.779 297.231Z" fill="#FE4877"/>
<path d="M141.299 309.708C141.299 309.708 150.352 305.347 146.935 300.55L156.799 303.142C156.799 303.142 159.659 303.734 158.144 306.186C156.63 308.637 148.795 312.202 141.299 309.708Z" fill="#FE4877"/>
<path d="M87.2578 82.682L89.2529 81.9845C91.659 81.1512 94.2973 81.3055 96.5899 82.4134C98.8825 83.5214 100.643 85.4927 101.485 87.8957L101.982 89.3189L81.8444 96.3593L81.3469 94.936C80.5045 92.5267 80.6538 89.8813 81.7619 87.582C82.87 85.2827 84.8461 83.5177 87.2554 82.6754L87.2578 82.682Z" fill="#FF534A"/>
<path d="M87.544 82.3235C88.1705 82.3235 88.6783 81.8157 88.6783 81.1892C88.6783 80.5628 88.1705 80.0549 87.544 80.0549C86.9176 80.0549 86.4098 80.5628 86.4098 81.1892C86.4098 81.8157 86.9176 82.3235 87.544 82.3235Z" fill="#6562BE"/>
<path d="M114.471 85.0149C114.465 85.1732 114.411 85.3259 114.315 85.452C114.219 85.5781 114.086 85.6715 113.935 85.7194L98.2528 90.6088L94.5399 91.9051L90.5523 81.612C98.0766 80.4002 100.782 85.4517 101.649 87.9527L113.506 84.254C113.698 84.1945 113.906 84.2137 114.085 84.3075C114.263 84.4012 114.397 84.5619 114.457 84.7542C114.475 84.8398 114.48 84.9278 114.471 85.0149Z" fill="#FFCB39"/>
<path d="M84.2582 93.1101L81.2788 94.1517L81.6043 95.0828L84.5837 94.0412L84.2582 93.1101Z" fill="#6562BE"/>
<path d="M62.0967 221.868H47.8653V242.462H62.0967V221.868Z" fill="#FFCB39"/>
<path d="M61.7688 215.915L53.1255 224.558L66.2673 237.7L74.9106 229.057L61.7688 215.915Z" fill="#FE4877"/>
<path d="M37.0091 277.824L27.9249 280.15L33.5722 302.209L42.6564 299.883L37.0091 277.824Z" fill="#FE4877"/>
<path d="M21.5795 280.464H18.233V298.711H21.5795V280.464Z" fill="#FFCC1E"/>
<path d="M21.5302 214.795H18.1837V233.042H21.5302V214.795Z" fill="#FFCC1E"/>
<path d="M187.791 146.865L175.074 152.853L172.383 154.121L160.772 159.582L159.201 160.321L128.357 174.743L85.5925 151.789L98.3232 133.993L129.858 156.439L150.409 147.633L159.821 141.877L164.513 128.921L167.148 128.554L163.252 139.834L166.521 138.298L166.563 138.277L181.027 130.344L182.373 132.634L168.712 140.01L169.431 141.461L183.74 133.859L185.304 135.888L170.65 143.927L171.509 145.667L185.663 137.29L186.769 140.017L172.7 148.07L173.735 150.155L186.114 143.934L187.791 146.865Z" fill="#FB9159"/>
<path d="M110.495 138.848L97.1567 159.596L75.3726 145.592C74.084 144.764 72.9713 143.69 72.0978 142.431C71.2243 141.173 70.6073 139.755 70.2819 138.258C69.9565 136.761 69.9291 135.215 70.2013 133.707C70.4735 132.2 71.0399 130.761 71.8683 129.472L72.5873 128.354C74.2602 125.751 76.8984 123.92 79.9214 123.263C82.9445 122.606 86.1047 123.176 88.7071 124.849L110.491 138.853L110.495 138.848Z" fill="#FE4877"/>
<path d="M135.832 247.041C138.319 254.664 134.183 264.126 134.183 264.126L129.195 264.612L109.3 266.535L107.059 266.754C108.158 262.594 108.44 258.261 107.891 253.995C107.891 253.811 107.841 253.628 107.813 253.452C107.664 252.478 107.457 251.513 107.193 250.564C106.659 248.527 105.808 246.587 104.671 244.815C101.529 240.052 102.318 240.517 102.557 230.675C102.557 230.428 102.557 230.168 102.557 229.907C102.557 228.822 102.557 227.617 102.557 226.272C102.576 224.613 102.338 222.961 101.853 221.375C101.736 220.99 101.597 220.611 101.437 220.241C100.809 218.726 99.8902 217.35 98.7318 216.19C98.2299 215.678 97.6881 215.207 97.1114 214.781C96.9564 214.661 96.8014 214.555 96.6464 214.45C94.6134 213.119 92.3474 212.185 89.9676 211.695L89.4251 211.589C88.6 211.423 87.7643 211.315 86.924 211.265C78.7868 209.152 72.0304 213.555 61.061 206.27C52.6067 200.634 59.7083 178.125 59.7083 178.125C59.7083 178.125 71.4175 177.244 101.726 179.865C104.108 180.064 106.476 180.415 108.814 180.914C118.022 183.155 124.278 187.255 128.477 192.095C128.625 192.264 128.773 192.426 128.907 192.595L128.984 192.687L129.146 192.898C138.685 204.664 136.832 220.375 136.029 225.116C135.945 225.624 135.874 226.004 135.825 226.243C135.163 229.675 133.352 239.418 135.832 247.041Z" fill="#FE4877"/>
<path d="M107.87 308.032L160.004 307.961C160.096 302.043 152.959 299.866 146.9 299.281L128.864 294.491L129.569 281.999L108.947 280.781L107.87 308.032Z" fill="#6562BE"/>
<path d="M107.961 307.658C107.961 307.658 107.123 316.486 110.54 313.604C113.957 310.723 115.471 309.497 117 310.92C118.529 312.343 121.178 314.689 122.51 312.167C123.841 309.645 125.046 313.576 129.287 312.703C133.528 311.829 132.169 309.645 133.416 310.004C134.663 310.364 133.268 314.689 137.1 313.069C140.933 311.449 140.172 309.102 142.257 309.821C144.343 310.54 146.435 315.619 150.423 310.92C154.41 306.221 154.601 316.747 156.883 314.182C159.166 311.618 159.976 307.722 159.976 307.722L107.961 307.658Z" fill="#FE4877"/>
<path d="M221.925 270.185C223.792 270.445 229.562 271.551 232.422 275.483C232.422 275.483 222.622 278.745 221.403 270.769C214.844 278.378 216.789 285.705 216.817 285.797L216.31 285.945C215.939 284.231 215.886 282.464 216.155 280.731C214.746 281.189 207.644 283.091 202.508 278.047C202.508 278.047 211.244 276.427 216.19 280.464C216.739 276.885 218.606 272.009 224.052 267.416C222.643 266.768 215.711 263.189 216.014 257.031C216.014 257.031 224.503 257.595 224.299 267.212C225.31 266.374 226.369 265.596 227.469 264.88C232.126 261.836 234.226 259.758 234.282 258.123C234.338 256.644 232.746 255.439 230.548 253.769C227.995 251.988 225.731 249.826 223.834 247.358L224.264 247.048C226.129 249.475 228.358 251.6 230.872 253.347C233.106 255.044 234.874 256.39 234.811 258.144C234.747 259.899 232.641 262.132 227.765 265.323L227.505 265.5C235.254 265.119 237.044 269.628 237.044 269.628C233.465 271.558 228.294 267.162 226.92 265.894C225.101 267.134 223.425 268.573 221.925 270.185Z" fill="#FFCB39"/>
<path d="M225.25 234.282C225.25 234.282 221.77 240.426 223.806 242.997C225.842 245.569 228.66 237.607 225.25 234.282Z" fill="#6562BE"/>
<path d="M223.411 246.992C223.411 246.992 219.931 253.135 221.967 255.707C224.003 258.278 226.856 250.317 223.411 246.992Z" fill="#6562BE"/>
<path d="M221.636 245.392C221.636 245.392 216.444 240.609 213.47 242.011C210.497 243.413 217.62 247.992 221.636 245.392Z" fill="#6562BE"/>
<path d="M226.11 246.583C226.11 246.583 232.676 249.204 234.944 246.837C237.213 244.469 228.97 242.729 226.11 246.583Z" fill="#6562BE"/>
<path d="M225.729 244.265C225.729 244.265 232.774 243.857 233.838 240.743C234.902 237.629 226.68 239.601 225.729 244.265Z" fill="#6562BE"/>
<path d="M222.2 247.013C222.2 247.013 215.154 246.583 213.745 249.549C212.336 252.515 220.706 251.515 222.2 247.013Z" fill="#6562BE"/>
<path d="M225.349 247.654C225.349 247.654 227.272 254.453 230.534 254.812C233.796 255.171 230.111 247.576 225.349 247.654Z" fill="#6562BE"/>
<path d="M222.989 243.504C222.989 243.504 221.1 236.692 217.839 236.318C214.577 235.945 218.226 243.561 222.989 243.504Z" fill="#6562BE"/>
<path d="M223.926 248.577C225.618 248.577 226.99 247.205 226.99 245.512C226.99 243.82 225.618 242.448 223.926 242.448C222.233 242.448 220.861 243.82 220.861 245.512C220.861 247.205 222.233 248.577 223.926 248.577Z" fill="#FE4877"/>
<path d="M233.902 284.106V289.214H229.59V303.861C229.59 306.159 228.677 308.363 227.052 309.988C225.427 311.613 223.223 312.526 220.924 312.526H214.175C211.878 312.525 209.676 311.611 208.052 309.986C206.428 308.361 205.516 306.158 205.516 303.861V289.214H202.036V284.106H233.902Z" fill="#FB9159"/>
</svg>
