<svg width="121" height="121" viewBox="0 0 121 121" fill="none" xmlns="http://www.w3.org/2000/svg">
<circle cx="60.5" cy="60.5" r="60.5" fill="black"/>
<path d="M82.4639 79.5775C93.0986 79.5775 101.72 70.9564 101.72 60.3216C101.72 49.6869 93.0986 41.0657 82.4639 41.0657C71.8292 41.0657 63.208 49.6869 63.208 60.3216C63.208 70.9564 71.8292 79.5775 82.4639 79.5775Z" fill="#FF5C00"/>
<path d="M31.5878 72.4832L27.5339 81.9085L36.9591 77.8546C34.8308 76.3344 33.0066 74.5102 31.5878 72.4832ZM66.4511 48.16L70.5049 38.7347L61.181 42.7886C63.208 44.3088 65.0322 46.1331 66.4511 48.16ZM28.142 56.5718L18.6154 60.3216L28.142 64.0715C27.8379 62.8553 27.7366 61.6391 27.7366 60.3216C27.7366 59.0041 27.8379 57.7879 28.142 56.5718M69.8968 64.0715L79.4235 60.3216L69.8968 56.5718C70.0995 57.7879 70.3022 59.1055 70.3022 60.3216C70.3022 61.6391 70.2009 62.8553 69.8968 64.0715ZM36.8578 42.89L27.4325 38.8361L31.4864 48.2613C33.0066 46.1331 34.8308 44.3088 36.8578 42.89ZM61.181 77.7533L70.6063 81.8071L66.5524 72.3819C65.0322 74.5102 63.208 76.3344 61.181 77.7533ZM52.7692 39.4442L49.0194 29.9176L45.2696 39.4442C46.4857 39.2415 47.8032 39.0388 49.0194 39.0388C50.2356 39.0388 51.5531 39.1401 52.7692 39.4442M45.2696 81.1991L49.0194 90.7257L52.7692 81.1991C51.5531 81.5031 50.3369 81.6045 49.0194 81.6045C47.7019 81.6045 46.4857 81.5031 45.2696 81.1991" fill="#FFCE31"/>
<path d="M49.0194 79.5775C59.6542 79.5775 68.2753 70.9564 68.2753 60.3216C68.2753 49.6869 59.6542 41.0657 49.0194 41.0657C38.3847 41.0657 29.7635 49.6869 29.7635 60.3216C29.7635 70.9564 38.3847 79.5775 49.0194 79.5775Z" fill="#FFCE31"/>
</svg>
