<svg width="37" height="30" viewBox="0 0 37 30" fill="none" xmlns="http://www.w3.org/2000/svg">
<path d="M36.9165 3.55152C35.5343 4.16387 34.0681 4.5656 32.5668 4.74335C34.1481 3.79718 35.3315 2.3083 35.8963 0.55421C34.4099 1.4366 32.7834 2.05795 31.0873 2.39134C30.3787 1.6355 29.5223 1.03325 28.5714 0.621902C27.6205 0.210557 26.5952 -0.00111422 25.5591 4.41069e-06C21.3767 4.41069e-06 17.9853 3.39044 17.9853 7.57383C17.9853 8.16687 18.0524 8.74552 18.1819 9.30021C11.8871 8.98427 6.30673 5.96874 2.57111 1.386C1.89757 2.5419 1.54364 3.85618 1.54564 5.19401C1.54465 6.44097 1.85169 7.66888 2.43949 8.76862C3.02729 9.86835 3.87764 10.8059 4.91498 11.4979C3.71246 11.4597 2.53644 11.1349 1.48475 10.5505C1.4838 10.5822 1.4838 10.6133 1.4838 10.6459C1.4838 14.3144 4.09422 17.3755 7.55849 18.0721C6.443 18.3741 5.27344 18.4183 4.13833 18.2015C5.10195 21.2099 7.89887 23.4003 11.2131 23.4617C8.53023 25.5671 5.21726 26.7091 1.80692 26.704C1.19567 26.704 0.593039 26.6685 0 26.598C3.46299 28.8231 7.49335 30.0041 11.6096 30C25.5405 30 33.1584 18.4599 33.1584 8.4526C33.1584 8.12468 33.1507 7.79724 33.1363 7.47172C34.6199 6.40065 35.9001 5.07304 36.9165 3.55152Z" fill="#ff891d"/>
</svg>
