<svg width="40" height="26" viewBox="0 0 40 26" fill="none" xmlns="http://www.w3.org/2000/svg">
<path d="M39.6364 6.52265C39.2727 3.80488 38.9091 1.81185 37.8182 1.08711C36.7273 0.181184 27.2727 0 20 0C12.7273 0 3.27273 0.181184 2.18182 1.08711C1.09091 1.81185 0.727273 3.80488 0.363636 6.52265C8.12791e-08 9.24042 0 10.8711 0 12.6829C0 14.4948 8.12791e-08 16.1254 0.363636 18.8432C0.727273 21.561 1.09091 23.554 2.18182 24.2787C3.27273 25.1847 12.7273 25.3659 20 25.3659C27.2727 25.3659 36.7273 25.1847 37.8182 24.2787C38.9091 23.554 39.2727 21.561 39.6364 18.8432C40 16.1254 40 14.4948 40 12.6829C40 10.8711 40 9.24042 39.6364 6.52265ZM16.3636 19.2056V6.16028L27.2727 12.6829L16.3636 19.2056Z" fill="#ff891d"/>
</svg>
