<svg width="140" height="60" viewBox="0 0 140 60" fill="none" xmlns="http://www.w3.org/2000/svg">
<path d="M63 49C73.4934 49 82 40.4934 82 30C82 19.5066 73.4934 11 63 11C52.5066 11 44 19.5066 44 30C44 40.4934 52.5066 49 63 49Z" fill="#FF5C00"/>
<path d="M12.8 42L8.8 51.3L18.1 47.3C16 45.8 14.2 44 12.8 42ZM47.2 18L51.2 8.7L42 12.7C44 14.2 45.8 16 47.2 18ZM9.4 26.3L0 30L9.4 33.7C9.1 32.5 9 31.3 9 30C9 28.7 9.1 27.5 9.4 26.3ZM50.6 33.7L60 30L50.6 26.3C50.8 27.5 51 28.8 51 30C51 31.3 50.9 32.5 50.6 33.7ZM18 12.8L8.7 8.8L12.7 18.1C14.2 16 16 14.2 18 12.8ZM42 47.2L51.3 51.2L47.3 41.9C45.8 44 44 45.8 42 47.2ZM33.7 9.4L30 0L26.3 9.4C27.5 9.2 28.8 9 30 9C31.2 9 32.5 9.1 33.7 9.4ZM26.3 50.6L30 60L33.7 50.6C32.5 50.9 31.3 51 30 51C28.7 51 27.5 50.9 26.3 50.6Z" fill="#FFCE31"/>
<path d="M30 49C40.4934 49 49 40.4934 49 30C49 19.5066 40.4934 11 30 11C19.5066 11 11 19.5066 11 30C11 40.4934 19.5066 49 30 49Z" fill="#FFCE31"/>
<path d="M97.4062 17.5L100.75 17.2031V26.2656H102.078V27H99.9688V25.8438H99.9375C99.2917 26.7188 98.4115 27.1562 97.2969 27.1562C96.3281 27.1562 95.5052 26.8177 94.8281 26.1406C94.1615 25.4531 93.8281 24.6354 93.8281 23.6875C93.8281 22.6771 94.1771 21.849 94.875 21.2031C95.5729 20.5469 96.3698 20.2188 97.2656 20.2188C97.7656 20.2188 98.2656 20.3385 98.7656 20.5781C99.2656 20.8177 99.6562 21.1458 99.9375 21.5625H99.9688V18.0469L97.4531 18.2031L97.4062 17.5ZM99.9375 23.7188C99.9375 23.0312 99.6979 22.4062 99.2188 21.8438C98.75 21.2812 98.1094 21 97.2969 21C96.5885 21 95.974 21.25 95.4531 21.75C94.9323 22.25 94.6719 22.8906 94.6719 23.6719C94.6719 24.4531 94.9271 25.099 95.4375 25.6094C95.9583 26.1198 96.5781 26.375 97.2969 26.375C98.0156 26.375 98.6354 26.1198 99.1562 25.6094C99.6771 25.099 99.9375 24.4688 99.9375 23.7188ZM109.578 22.375V26.2656H110.969V27H108.797V25.875C107.828 26.7708 106.833 27.2188 105.812 27.2188C105.073 27.2188 104.469 26.9948 104 26.5469C103.531 26.099 103.297 25.5885 103.297 25.0156C103.297 24.776 103.349 24.5312 103.453 24.2812C103.568 24.0312 103.74 23.7812 103.969 23.5312C104.208 23.2708 104.552 23.0625 105 22.9062C105.458 22.7396 105.995 22.6562 106.609 22.6562C107.38 22.6562 108.109 22.724 108.797 22.8594V22.375C108.797 22.2292 108.792 22.1094 108.781 22.0156C108.771 21.9115 108.734 21.7708 108.672 21.5938C108.609 21.4062 108.516 21.2604 108.391 21.1562C108.266 21.0417 108.073 20.9427 107.812 20.8594C107.562 20.7656 107.26 20.7188 106.906 20.7188C106.125 20.7188 105.234 20.9375 104.234 21.375L103.938 20.6719C105.062 20.2031 106.057 19.9688 106.922 19.9688C107.422 19.9688 107.849 20.0365 108.203 20.1719C108.568 20.3073 108.833 20.4583 109 20.625C109.177 20.7917 109.312 21.0104 109.406 21.2812C109.5 21.5417 109.552 21.7396 109.562 21.875C109.573 22.0104 109.578 22.1771 109.578 22.375ZM108.797 24.8281V23.5781C108.141 23.4635 107.464 23.4062 106.766 23.4062C106.286 23.4062 105.865 23.4583 105.5 23.5625C105.146 23.6667 104.885 23.7865 104.719 23.9219C104.552 24.0469 104.422 24.2031 104.328 24.3906C104.234 24.5677 104.177 24.7031 104.156 24.7969C104.146 24.8802 104.141 24.9583 104.141 25.0312C104.141 25.4167 104.307 25.7552 104.641 26.0469C104.974 26.3281 105.359 26.4688 105.797 26.4688C106.818 26.4688 107.818 25.9219 108.797 24.8281ZM112.125 20.2812H115.047V21.0156H113.969L116.438 25.7656L119.156 21.0156H118.094V20.2812H120.953V21.0156H120.047L115.672 28.6562H117.062V29.3906H112.375V28.6562H114.781L115.984 26.5781L113.078 21.0156H112.125V20.2812ZM97.4062 34.5L100.75 34.2031V43.2656H102.078V44H99.9688V42.8438H99.9375C99.2917 43.7188 98.4115 44.1562 97.2969 44.1562C96.3281 44.1562 95.5052 43.8177 94.8281 43.1406C94.1615 42.4531 93.8281 41.6354 93.8281 40.6875C93.8281 39.6771 94.1771 38.849 94.875 38.2031C95.5729 37.5469 96.3698 37.2188 97.2656 37.2188C97.7656 37.2188 98.2656 37.3385 98.7656 37.5781C99.2656 37.8177 99.6562 38.1458 99.9375 38.5625H99.9688V35.0469L97.4531 35.2031L97.4062 34.5ZM99.9375 40.7188C99.9375 40.0312 99.6979 39.4062 99.2188 38.8438C98.75 38.2812 98.1094 38 97.2969 38C96.5885 38 95.974 38.25 95.4531 38.75C94.9323 39.25 94.6719 39.8906 94.6719 40.6719C94.6719 41.4531 94.9271 42.099 95.4375 42.6094C95.9583 43.1198 96.5781 43.375 97.2969 43.375C98.0156 43.375 98.6354 43.1198 99.1562 42.6094C99.6771 42.099 99.9375 41.4688 99.9375 40.7188ZM103.672 37.2812H106.266V38.8438C106.526 38.5833 106.729 38.3854 106.875 38.25C107.031 38.1146 107.26 37.9375 107.562 37.7188C107.865 37.4896 108.172 37.3229 108.484 37.2188C108.807 37.1146 109.146 37.0625 109.5 37.0625C109.802 37.0625 110.073 37.1146 110.312 37.2188C110.562 37.3125 110.745 37.4115 110.859 37.5156C110.974 37.6094 111.104 37.7448 111.25 37.9219L110.422 38.5312C110.38 38.4896 110.359 38.4531 110.359 38.4219C110.276 38.2969 110.208 38.2083 110.156 38.1562C110.115 38.0938 110.021 38.026 109.875 37.9531C109.729 37.8802 109.562 37.8438 109.375 37.8438C109.062 37.8438 108.745 37.9115 108.422 38.0469C108.099 38.1823 107.786 38.3802 107.484 38.6406C107.182 38.901 106.958 39.1094 106.812 39.2656C106.667 39.4115 106.484 39.6042 106.266 39.8438V43.2656H109.234V44H103.547V43.2656H105.484V38.0156H103.672V37.2812ZM120.125 42.4219L120.484 43.1094C119.161 43.849 117.901 44.2188 116.703 44.2188C115.495 44.2188 114.557 43.875 113.891 43.1875C113.234 42.4896 112.906 41.6458 112.906 40.6562C112.906 39.6562 113.245 38.8073 113.922 38.1094C114.599 37.401 115.495 37.0469 116.609 37.0469C117.714 37.0469 118.578 37.3646 119.203 38C119.839 38.6354 120.156 39.3542 120.156 40.1562C120.156 40.25 120.151 40.3854 120.141 40.5625C120.13 40.7396 120.125 40.8385 120.125 40.8594H113.75C113.76 41.1094 113.812 41.3646 113.906 41.625C114 41.8854 114.146 42.1667 114.344 42.4688C114.542 42.7604 114.844 43 115.25 43.1875C115.667 43.375 116.156 43.4688 116.719 43.4688C117.594 43.4688 118.729 43.1198 120.125 42.4219ZM113.75 40.125H119.312C119.302 39.5417 119.062 39.0104 118.594 38.5312C118.135 38.0417 117.474 37.7969 116.609 37.7969C116.13 37.7969 115.698 37.8854 115.312 38.0625C114.938 38.2292 114.646 38.4479 114.438 38.7188C114.229 38.9792 114.068 39.2292 113.953 39.4688C113.849 39.6979 113.781 39.9167 113.75 40.125ZM128.328 39.375V43.2656H129.719V44H127.547V42.875C126.578 43.7708 125.583 44.2188 124.562 44.2188C123.823 44.2188 123.219 43.9948 122.75 43.5469C122.281 43.099 122.047 42.5885 122.047 42.0156C122.047 41.776 122.099 41.5312 122.203 41.2812C122.318 41.0312 122.49 40.7812 122.719 40.5312C122.958 40.2708 123.302 40.0625 123.75 39.9062C124.208 39.7396 124.745 39.6562 125.359 39.6562C126.13 39.6562 126.859 39.724 127.547 39.8594V39.375C127.547 39.2292 127.542 39.1094 127.531 39.0156C127.521 38.9115 127.484 38.7708 127.422 38.5938C127.359 38.4062 127.266 38.2604 127.141 38.1562C127.016 38.0417 126.823 37.9427 126.562 37.8594C126.312 37.7656 126.01 37.7188 125.656 37.7188C124.875 37.7188 123.984 37.9375 122.984 38.375L122.688 37.6719C123.812 37.2031 124.807 36.9688 125.672 36.9688C126.172 36.9688 126.599 37.0365 126.953 37.1719C127.318 37.3073 127.583 37.4583 127.75 37.625C127.927 37.7917 128.062 38.0104 128.156 38.2812C128.25 38.5417 128.302 38.7396 128.312 38.875C128.323 39.0104 128.328 39.1771 128.328 39.375ZM127.547 41.8281V40.5781C126.891 40.4635 126.214 40.4062 125.516 40.4062C125.036 40.4062 124.615 40.4583 124.25 40.5625C123.896 40.6667 123.635 40.7865 123.469 40.9219C123.302 41.0469 123.172 41.2031 123.078 41.3906C122.984 41.5677 122.927 41.7031 122.906 41.7969C122.896 41.8802 122.891 41.9583 122.891 42.0312C122.891 42.4167 123.057 42.7552 123.391 43.0469C123.724 43.3281 124.109 43.4688 124.547 43.4688C125.568 43.4688 126.568 42.9219 127.547 41.8281ZM130.5 37.2812H132.281V37.8281L132.484 37.6562C132.849 37.2917 133.297 37.1094 133.828 37.1094C134.161 37.1094 134.469 37.1979 134.75 37.375C135.031 37.5417 135.245 37.7812 135.391 38.0938C135.953 37.4375 136.547 37.1094 137.172 37.1094C137.443 37.1094 137.708 37.1719 137.969 37.2969C138.229 37.4219 138.427 37.5833 138.562 37.7812C138.719 38.0104 138.823 38.2552 138.875 38.5156C138.938 38.7656 138.969 39.1771 138.969 39.75V43.2656H139.859V44H138.188V39.75C138.188 39.4479 138.182 39.224 138.172 39.0781C138.161 38.9219 138.125 38.7344 138.062 38.5156C138.01 38.2969 137.911 38.1406 137.766 38.0469C137.62 37.9427 137.427 37.8906 137.188 37.8906C136.656 37.8906 136.146 38.2344 135.656 38.9219V43.2656H136.625V44H134.875V39.6875C134.875 39.4792 134.87 39.3229 134.859 39.2188C134.859 39.1146 134.844 38.9635 134.812 38.7656C134.781 38.5677 134.729 38.4167 134.656 38.3125C134.594 38.2083 134.49 38.1146 134.344 38.0312C134.208 37.9375 134.042 37.8906 133.844 37.8906C133.312 37.8906 132.812 38.1823 132.344 38.7656V43.2656H133.406V44H130.5V43.2656H131.562V38.0156H130.5V37.2812Z" fill="black"/>
<line x1="87.5" y1="44" x2="87.5" y2="16" stroke="black"/>
</svg>
